M48
;Layer_Color=9474304
;FILE_FORMAT=2:5
INCH,LZ
;TYPE=PLATED
T1F00S00C0.01181
T2F00S00C0.05906
%
T01
X0037402Y0033465
X0043307
X0041339Y0037402
X0043307Y0041339
X0041339Y0045276
X0033465
X0037402Y0049213
Y0057087
X0040945
Y0061024
X0033465
Y005315
X0037402Y0041339
X0033465Y0037402
X0053524Y0051555
Y0066555
X0055118Y0075197
Y007874
Y0082284
X006811Y0092677
X0070866
X0081496Y0091063
X0083976Y0100472
X0084252Y0104488
X0086221Y0113937
X008752Y0121811
X0076968Y0122244
X009626Y0125
X0096063Y0117323
X0100787Y0114173
X0102717Y0102677
X009437
Y0093898
X0102717
X0109055Y0087402
X0117913Y0090591
X0122008Y0099685
X0129528Y009685
Y0094095
X0129724Y010315
Y0105905
X0129921Y0115748
Y0118504
X0127559Y0128347
X0124803
X0118701Y012248
X0110433Y0107362
X0113976Y0141378
X0107638Y014626
X0112992Y0159843
X007559Y0169685
Y0173228
Y0176772
X0076772Y0146043
X0053524
X0047244Y0138189
X0043307Y0135827
X0041339Y013189
X0043307Y0127953
X0047244Y0129134
X0037402Y0127953
X0033465Y013189
X0037402Y0135827
X0033465Y0139764
X0041339
X0037402Y0143701
X0033465Y0147638
X0037402Y0151575
X0040945
Y0155512
Y0161024
X0033465Y0155512
X0047244Y0116535
X0045276Y0112205
X0047244Y0098425
X0076968Y007185
X008937Y0064173
X0098425Y0064173
X0107874Y0064173
X0121063Y0076968
X0131299Y0076968
X009626Y0081299
X0090669Y0084449
X0074803Y0051555
X0152165Y0046772
X0158661Y0072835
Y0082284
X0155118Y0087008
X0148425
X0145276Y0082677
Y0072835
X0133858Y0084252
Y0087008
X0148819Y0109843
X0155512
X0158661Y0114173
Y0124016
X0145276
Y0114567
X0151772Y0149724
T02
X0019685Y007874
Y011811
X0177165
Y0141732
Y007874
Y0055118
M30
