G04*
G04 #@! TF.GenerationSoftware,Altium Limited,Altium Designer,18.0.12 (696)*
G04*
G04 Layer_Physical_Order=1*
G04 Layer_Color=255*
%FSLAX44Y44*%
%MOMM*%
G71*
G01*
G75*
%ADD10C,0.2000*%
%ADD11C,0.2540*%
%ADD12R,2.1000X0.6000*%
%ADD13R,3.8500X5.5000*%
%ADD14R,0.9000X2.5000*%
%ADD15R,2.5500X3.7500*%
%ADD23C,0.5000*%
%ADD24C,4.0000*%
%ADD25C,0.6000*%
G36*
X196000Y427000D02*
X196000Y427000D01*
X176000D01*
Y453000D01*
X196000D01*
Y427000D01*
D02*
G37*
G36*
X165000Y465000D02*
X165000Y427000D01*
X171000Y421000D01*
X187400D01*
Y405000D01*
X145000Y405000D01*
X130000Y420000D01*
X84000Y420000D01*
X76000Y412000D01*
X76000Y325000D01*
X83200Y317800D01*
X239156Y317800D01*
X239402Y317500D01*
X239790Y315549D01*
X240895Y313895D01*
X242549Y312790D01*
X244500Y312402D01*
X246451Y312790D01*
X248105Y313895D01*
X249210Y315549D01*
X249598Y317500D01*
X249844Y317800D01*
X299302Y317800D01*
X299549Y315810D01*
X297895Y314705D01*
X296790Y313051D01*
X296402Y311100D01*
X296790Y309149D01*
X297895Y307495D01*
X299549Y306390D01*
X301500Y306002D01*
X303451Y306390D01*
X305105Y307495D01*
X306210Y309149D01*
X306598Y311100D01*
X306210Y313051D01*
X305105Y314705D01*
X303451Y315810D01*
X303698Y317800D01*
X307200D01*
X325000Y300000D01*
Y294492D01*
X324902Y294000D01*
X325000Y293507D01*
Y271265D01*
X324790Y270951D01*
X324402Y269000D01*
X324790Y267049D01*
X325000Y266735D01*
Y264265D01*
X324790Y263951D01*
X324402Y262000D01*
X324790Y260049D01*
X325000Y259735D01*
Y249013D01*
X324290Y247951D01*
X323902Y246000D01*
X323081Y245000D01*
X290000D01*
X290000Y275000D01*
X283000Y282000D01*
X77742D01*
X74000Y278954D01*
X74000Y269000D01*
X78000Y265000D01*
X175000Y265000D01*
X195000Y245000D01*
Y187498D01*
X193549Y187210D01*
X191895Y186105D01*
X190790Y184451D01*
X190402Y182500D01*
X190790Y180549D01*
X191895Y178895D01*
X193549Y177790D01*
X195000Y177502D01*
Y165000D01*
X160000D01*
Y215000D01*
X150000Y225000D01*
X30000Y225000D01*
X20000Y235000D01*
Y465000D01*
X30000Y475000D01*
X155000Y475000D01*
X165000Y465000D01*
D02*
G37*
G36*
X243600Y341200D02*
X243517Y341000D01*
X192800D01*
X165100Y368700D01*
X165200Y368800D01*
Y399559D01*
X165300Y399600D01*
X243600D01*
Y341200D01*
D02*
G37*
G36*
X359300Y384200D02*
X479800Y384200D01*
X479800Y336600D01*
X298900Y336600D01*
Y399537D01*
X299400Y400600D01*
X342900D01*
X359300Y384200D01*
D02*
G37*
G36*
X130000Y380000D02*
X109000Y380000D01*
X105500Y376500D01*
Y375950D01*
X105500D01*
Y372833D01*
X105500Y365500D01*
X108000Y363000D01*
X114900Y363000D01*
X114900Y321400D01*
X85100Y321400D01*
X80000Y326500D01*
X80000Y395000D01*
X85000Y400000D01*
X130000D01*
Y380000D01*
D02*
G37*
G36*
X407000Y275000D02*
X364000D01*
Y323000D01*
X407000D01*
Y275000D01*
D02*
G37*
G36*
X156000Y187000D02*
X136000D01*
Y213000D01*
X136000Y213000D01*
X156000D01*
Y187000D01*
D02*
G37*
G36*
X408000Y177000D02*
X365000D01*
Y225000D01*
X408000D01*
Y177000D01*
D02*
G37*
G36*
X243900Y102346D02*
X243600Y101200D01*
X189400D01*
X164700Y125900D01*
Y159600D01*
X164800Y159900D01*
X164900Y160000D01*
X222991D01*
X223395Y159395D01*
X225049Y158290D01*
X227000Y157902D01*
X228951Y158290D01*
X230605Y159395D01*
X231009Y160000D01*
X243900D01*
Y102346D01*
D02*
G37*
G36*
X479800Y115800D02*
X359300Y115800D01*
X342900Y99400D01*
X299400D01*
X298900Y100463D01*
Y163400D01*
X479800Y163400D01*
X479800Y115800D01*
D02*
G37*
G36*
X130000Y140000D02*
X109000Y140000D01*
X105500Y136500D01*
Y135950D01*
X105500D01*
Y132833D01*
X105500Y125500D01*
X108000Y123000D01*
X114900Y123000D01*
X114900Y81400D01*
X85100Y81400D01*
X80000Y86500D01*
X80000Y155000D01*
X85000Y160000D01*
X130000D01*
Y140000D01*
D02*
G37*
%LPC*%
G36*
X195500Y315598D02*
X193549Y315210D01*
X191895Y314105D01*
X190790Y312451D01*
X190402Y310500D01*
X190790Y308549D01*
X191895Y306895D01*
X193549Y305790D01*
X195500Y305402D01*
X197451Y305790D01*
X199105Y306895D01*
X200210Y308549D01*
X200598Y310500D01*
X200210Y312451D01*
X199105Y314105D01*
X197451Y315210D01*
X195500Y315598D01*
D02*
G37*
G36*
X222300Y314498D02*
X220349Y314110D01*
X218695Y313005D01*
X217590Y311351D01*
X217202Y309400D01*
X217590Y307449D01*
X218695Y305795D01*
X220349Y304690D01*
X222300Y304302D01*
X224251Y304690D01*
X225905Y305795D01*
X227010Y307449D01*
X227398Y309400D01*
X227010Y311351D01*
X225905Y313005D01*
X224251Y314110D01*
X222300Y314498D01*
D02*
G37*
G36*
X244000Y303098D02*
X242049Y302710D01*
X240395Y301605D01*
X239290Y299951D01*
X238902Y298000D01*
X239290Y296049D01*
X240395Y294395D01*
X242049Y293290D01*
X244000Y292902D01*
X245951Y293290D01*
X247605Y294395D01*
X248710Y296049D01*
X249098Y298000D01*
X248710Y299951D01*
X247605Y301605D01*
X245951Y302710D01*
X244000Y303098D01*
D02*
G37*
G36*
X120000Y301098D02*
X118049Y300710D01*
X116395Y299605D01*
X115290Y297951D01*
X114902Y296000D01*
X115290Y294049D01*
X116395Y292395D01*
X118049Y291290D01*
X120000Y290902D01*
X121951Y291290D01*
X123605Y292395D01*
X124710Y294049D01*
X125098Y296000D01*
X124710Y297951D01*
X123605Y299605D01*
X121951Y300710D01*
X120000Y301098D01*
D02*
G37*
G36*
X256000Y295098D02*
X254049Y294710D01*
X252395Y293605D01*
X251290Y291951D01*
X250902Y290000D01*
X251290Y288049D01*
X252395Y286395D01*
X254049Y285290D01*
X256000Y284902D01*
X257951Y285290D01*
X259605Y286395D01*
X260710Y288049D01*
X261098Y290000D01*
X260710Y291951D01*
X259605Y293605D01*
X257951Y294710D01*
X256000Y295098D01*
D02*
G37*
G36*
X219000Y294498D02*
X217049Y294110D01*
X215395Y293005D01*
X214290Y291351D01*
X213902Y289400D01*
X214290Y287449D01*
X215395Y285795D01*
X217049Y284690D01*
X219000Y284302D01*
X220951Y284690D01*
X222605Y285795D01*
X223710Y287449D01*
X224098Y289400D01*
X223710Y291351D01*
X222605Y293005D01*
X220951Y294110D01*
X219000Y294498D01*
D02*
G37*
G36*
X120000Y255098D02*
X118049Y254710D01*
X116395Y253605D01*
X115290Y251951D01*
X114902Y250000D01*
X115290Y248049D01*
X116395Y246395D01*
X118049Y245290D01*
X120000Y244902D01*
X121951Y245290D01*
X123605Y246395D01*
X124710Y248049D01*
X125098Y250000D01*
X124710Y251951D01*
X123605Y253605D01*
X121951Y254710D01*
X120000Y255098D01*
D02*
G37*
G36*
X180000Y240498D02*
X178049Y240110D01*
X176500Y239075D01*
X174951Y240110D01*
X173000Y240498D01*
X171049Y240110D01*
X169395Y239005D01*
X168290Y237351D01*
X167902Y235400D01*
X168290Y233449D01*
X169395Y231795D01*
X171049Y230690D01*
X173000Y230302D01*
X174951Y230690D01*
X176500Y231725D01*
X178049Y230690D01*
X180000Y230302D01*
X181951Y230690D01*
X183605Y231795D01*
X184710Y233449D01*
X185098Y235400D01*
X184710Y237351D01*
X183605Y239005D01*
X181951Y240110D01*
X180000Y240498D01*
D02*
G37*
%LPD*%
D10*
X37997Y29997D02*
X35998Y31996D01*
X31999D01*
X30000Y29997D01*
Y27997D01*
X31999Y25998D01*
X35998D01*
X37997Y23999D01*
Y21999D01*
X35998Y20000D01*
X31999D01*
X30000Y21999D01*
X49994Y27997D02*
X43995D01*
X41996Y25998D01*
Y21999D01*
X43995Y20000D01*
X49994D01*
X53992Y31996D02*
Y20000D01*
Y25998D01*
X55992Y27997D01*
X59990D01*
X61990Y25998D01*
Y20000D01*
X71986D02*
X67988D01*
X65988Y21999D01*
Y25998D01*
X67988Y27997D01*
X71986D01*
X73986Y25998D01*
Y23999D01*
X65988D01*
X77984Y20000D02*
Y27997D01*
X79984D01*
X81983Y25998D01*
Y20000D01*
Y25998D01*
X83982Y27997D01*
X85982Y25998D01*
Y20000D01*
X91980Y27997D02*
X95979D01*
X97978Y25998D01*
Y20000D01*
X91980D01*
X89981Y21999D01*
X91980Y23999D01*
X97978D01*
X103976Y29997D02*
Y27997D01*
X101977D01*
X105975D01*
X103976D01*
Y21999D01*
X105975Y20000D01*
X111973D02*
X115972D01*
X113973D01*
Y27997D01*
X111973D01*
X129968D02*
X123970D01*
X121970Y25998D01*
Y21999D01*
X123970Y20000D01*
X129968D01*
X153960D02*
X151960Y21999D01*
X149961Y20000D01*
X147962D01*
X145962Y21999D01*
Y23999D01*
X147962Y25998D01*
X145962Y27997D01*
Y29997D01*
X147962Y31996D01*
X149961D01*
X151960Y29997D01*
Y27997D01*
X149961Y25998D01*
X151960Y23999D01*
Y21999D01*
X153960Y25998D02*
X151960Y23999D01*
X147962Y25998D02*
X149961D01*
X169955Y20000D02*
Y31996D01*
X175953D01*
X177952Y29997D01*
Y25998D01*
X175953Y23999D01*
X169955D01*
X189948Y29997D02*
X187949Y31996D01*
X183950D01*
X181951Y29997D01*
Y21999D01*
X183950Y20000D01*
X187949D01*
X189948Y21999D01*
X193947Y31996D02*
Y20000D01*
X199945D01*
X201944Y21999D01*
Y23999D01*
X199945Y25998D01*
X193947D01*
X199945D01*
X201944Y27997D01*
Y29997D01*
X199945Y31996D01*
X193947D01*
X217939D02*
Y20000D01*
X223937D01*
X225937Y21999D01*
Y29997D01*
X223937Y31996D01*
X217939D01*
X235933Y20000D02*
X231935D01*
X229935Y21999D01*
Y25998D01*
X231935Y27997D01*
X235933D01*
X237933Y25998D01*
Y23999D01*
X229935D01*
X241931Y20000D02*
X247929D01*
X249929Y21999D01*
X247929Y23999D01*
X243931D01*
X241931Y25998D01*
X243931Y27997D01*
X249929D01*
X253927Y20000D02*
X257926D01*
X255927D01*
Y27997D01*
X253927D01*
X267923Y16001D02*
X269922D01*
X271922Y18001D01*
Y27997D01*
X265924D01*
X263924Y25998D01*
Y21999D01*
X265924Y20000D01*
X271922D01*
X275920D02*
Y27997D01*
X281919D01*
X283918Y25998D01*
Y20000D01*
X307910Y29997D02*
X305911Y31996D01*
X301912D01*
X299913Y29997D01*
Y21999D01*
X301912Y20000D01*
X305911D01*
X307910Y21999D01*
X313908Y20000D02*
X317907D01*
X319906Y21999D01*
Y25998D01*
X317907Y27997D01*
X313908D01*
X311909Y25998D01*
Y21999D01*
X313908Y20000D01*
X323905Y27997D02*
Y21999D01*
X325904Y20000D01*
X331902D01*
Y27997D01*
X335901D02*
Y20000D01*
Y23999D01*
X337900Y25998D01*
X339900Y27997D01*
X341899D01*
X347897Y20000D02*
X353895D01*
X355895Y21999D01*
X353895Y23999D01*
X349897D01*
X347897Y25998D01*
X349897Y27997D01*
X355895D01*
X365891Y20000D02*
X361893D01*
X359893Y21999D01*
Y25998D01*
X361893Y27997D01*
X365891D01*
X367891Y25998D01*
Y23999D01*
X359893D01*
X371889Y20000D02*
X377887D01*
X379887Y21999D01*
X377887Y23999D01*
X373889D01*
X371889Y25998D01*
X373889Y27997D01*
X379887D01*
D11*
X30000Y40000D02*
Y50157D01*
X32539D01*
X35078Y47618D01*
Y40000D01*
Y47618D01*
X37617Y50157D01*
X40157Y47618D01*
Y40000D01*
X45235D02*
X50313D01*
X47774D01*
Y50157D01*
X45235D01*
X68088D02*
X60470D01*
X57931Y47618D01*
Y42539D01*
X60470Y40000D01*
X68088D01*
X73166Y50157D02*
Y40000D01*
Y45078D01*
X75705Y47618D01*
X78244Y50157D01*
X80784D01*
X90940Y40000D02*
X96019D01*
X98558Y42539D01*
Y47618D01*
X96019Y50157D01*
X90940D01*
X88401Y47618D01*
Y42539D01*
X90940Y40000D01*
X113793Y55235D02*
X103636D01*
Y47618D01*
X108715D01*
X103636D01*
Y40000D01*
X121410Y50157D02*
X126489D01*
X129028Y47618D01*
Y40000D01*
X121410D01*
X118871Y42539D01*
X121410Y45078D01*
X129028D01*
X134106Y55235D02*
Y40000D01*
X141724D01*
X144263Y42539D01*
Y45078D01*
Y47618D01*
X141724Y50157D01*
X134106D01*
X149341D02*
Y40000D01*
Y45078D01*
X151881Y47618D01*
X154420Y50157D01*
X156959D01*
X164576Y40000D02*
X169655D01*
X167116D01*
Y50157D01*
X164576D01*
X187429D02*
X179811D01*
X177272Y47618D01*
Y42539D01*
X179811Y40000D01*
X187429D01*
X195047Y50157D02*
X200125D01*
X202664Y47618D01*
Y40000D01*
X195047D01*
X192507Y42539D01*
X195047Y45078D01*
X202664D01*
X210282Y52696D02*
Y50157D01*
X207743D01*
X212821D01*
X210282D01*
Y42539D01*
X212821Y40000D01*
X228056D02*
X222978D01*
X220438Y42539D01*
Y47618D01*
X222978Y50157D01*
X228056D01*
X230595Y47618D01*
Y45078D01*
X220438D01*
D12*
X118000Y169050D02*
D03*
Y156350D02*
D03*
Y143650D02*
D03*
Y130950D02*
D03*
X176000Y169050D02*
D03*
Y156350D02*
D03*
Y143650D02*
D03*
Y130950D02*
D03*
Y370950D02*
D03*
Y383650D02*
D03*
Y396350D02*
D03*
Y409050D02*
D03*
X118000Y370950D02*
D03*
Y383650D02*
D03*
Y396350D02*
D03*
Y409050D02*
D03*
D13*
X322750Y130000D02*
D03*
X223250D02*
D03*
X223250Y370000D02*
D03*
X322750D02*
D03*
D14*
X181500Y200000D02*
D03*
X150500D02*
D03*
Y440000D02*
D03*
X181500D02*
D03*
D15*
X386000Y143000D02*
D03*
Y197000D02*
D03*
Y357000D02*
D03*
Y303000D02*
D03*
D23*
X104000Y409000D02*
X122280D01*
X120980Y408800D02*
X121480Y409300D01*
X121730Y409050D01*
Y130950D02*
X135950D01*
X121730Y169050D02*
X135950D01*
X121730Y370950D02*
X135950D01*
D24*
X50000Y300000D02*
D03*
Y200000D02*
D03*
X450000Y140000D02*
D03*
Y360000D02*
D03*
Y200000D02*
D03*
Y300000D02*
D03*
D25*
X104000Y409000D02*
D03*
X385500Y380300D02*
D03*
X104000Y155000D02*
D03*
Y145000D02*
D03*
X95000D02*
D03*
X85000Y155000D02*
D03*
Y135000D02*
D03*
X95000Y125000D02*
D03*
X105000Y115000D02*
D03*
X85000D02*
D03*
X95000Y105000D02*
D03*
X105000Y95000D02*
D03*
X85000D02*
D03*
X95000Y85000D02*
D03*
X110000D02*
D03*
Y105000D02*
D03*
Y345000D02*
D03*
Y325000D02*
D03*
X95000D02*
D03*
X85000Y335000D02*
D03*
X105000D02*
D03*
X95000Y345000D02*
D03*
X85000Y355000D02*
D03*
X105000D02*
D03*
X95000Y365000D02*
D03*
X85000Y375000D02*
D03*
Y395000D02*
D03*
X95000Y385000D02*
D03*
X173000Y235400D02*
D03*
X180000D02*
D03*
X340000Y221000D02*
D03*
Y214000D02*
D03*
X329000Y246000D02*
D03*
Y239000D02*
D03*
X329500Y269000D02*
D03*
Y262000D02*
D03*
X330000Y294000D02*
D03*
X324000Y326000D02*
D03*
X377000Y221000D02*
D03*
X369000Y185000D02*
D03*
Y210000D02*
D03*
X394000Y221000D02*
D03*
X403000Y209000D02*
D03*
Y185000D02*
D03*
X369000Y315000D02*
D03*
Y291000D02*
D03*
X378000Y279000D02*
D03*
X403000Y290000D02*
D03*
Y315000D02*
D03*
X140000Y200000D02*
D03*
Y191000D02*
D03*
Y209000D02*
D03*
X192000Y431000D02*
D03*
Y449000D02*
D03*
X256000Y290000D02*
D03*
X214000Y265400D02*
D03*
X219000Y289400D02*
D03*
X244000Y298000D02*
D03*
X115000Y285000D02*
D03*
X280500Y272700D02*
D03*
X289500Y359100D02*
D03*
X273400Y371500D02*
D03*
X386500Y118800D02*
D03*
X309900Y253200D02*
D03*
X207000Y231300D02*
D03*
X239700Y260800D02*
D03*
X222300Y309400D02*
D03*
X230300Y214500D02*
D03*
X195000Y370950D02*
D03*
X190000Y130950D02*
D03*
X135950D02*
D03*
Y169050D02*
D03*
Y370950D02*
D03*
X395000Y279000D02*
D03*
X192000Y440000D02*
D03*
X104000Y385000D02*
D03*
Y395000D02*
D03*
X239700Y238500D02*
D03*
X260900D02*
D03*
Y260800D02*
D03*
X287000Y406000D02*
D03*
X244500Y317500D02*
D03*
X317000Y326000D02*
D03*
X330000Y301000D02*
D03*
X333500Y195500D02*
D03*
X250000Y163000D02*
D03*
X301500Y311100D02*
D03*
X274000Y163000D02*
D03*
X227000D02*
D03*
X120000Y296000D02*
D03*
X120000Y328000D02*
D03*
Y351000D02*
D03*
X195500Y310500D02*
D03*
X120000Y250000D02*
D03*
X299500Y230100D02*
D03*
X277000Y222000D02*
D03*
X307500Y195500D02*
D03*
X244500Y206500D02*
D03*
X195500Y182500D02*
D03*
X213300Y255200D02*
D03*
M02*
