G04*
G04 #@! TF.GenerationSoftware,Altium Limited,Altium Designer,18.0.12 (696)*
G04*
G04 Layer_Physical_Order=6*
G04 Layer_Color=16711680*
%FSLAX44Y44*%
%MOMM*%
G71*
G01*
G75*
%ADD10C,0.2000*%
%ADD23C,0.5000*%
%ADD24C,4.0000*%
%ADD25C,0.6000*%
%ADD31R,3.3000X3.3000*%
%ADD32R,0.6000X0.2300*%
%ADD33R,0.2300X0.6000*%
%ADD34R,1.3000X0.7000*%
%ADD35R,0.9000X1.6000*%
%ADD36R,0.9000X1.3000*%
%ADD37R,0.7000X1.3000*%
%ADD38C,0.9000*%
%ADD39C,0.7000*%
G36*
X328000Y344000D02*
Y322000D01*
X313000Y322000D01*
Y344000D01*
X328000Y344000D01*
D02*
G37*
G36*
X334000Y290559D02*
X315000D01*
Y305000D01*
X334000D01*
Y290559D01*
D02*
G37*
G36*
X333500Y258000D02*
X314500D01*
Y272421D01*
X314523Y272444D01*
X333500D01*
Y258000D01*
D02*
G37*
G36*
X333000Y235000D02*
X314000D01*
Y250000D01*
X333000D01*
Y235000D01*
D02*
G37*
G36*
X184000Y231500D02*
X173000D01*
Y231400D01*
X169000D01*
Y252412D01*
X184000D01*
Y231500D01*
D02*
G37*
G36*
X344000Y209000D02*
X325000D01*
Y226000D01*
X344000D01*
Y209000D01*
D02*
G37*
D10*
X335600Y360000D02*
X344700Y350900D01*
Y296000D02*
Y350900D01*
X336200Y287500D02*
X344700Y296000D01*
X216300Y248000D02*
X225500D01*
X213300Y251000D02*
X216300Y248000D01*
X225500D02*
X226000Y247500D01*
X261500Y285057D02*
X262000Y285557D01*
X257500Y274000D02*
Y288500D01*
X256000Y290000D02*
X257500Y288500D01*
X262000Y285557D02*
Y292485D01*
X261500Y292985D02*
Y297307D01*
Y292985D02*
X262000Y292485D01*
X258000Y298500D02*
X259193Y297307D01*
X261500D01*
X207915Y271400D02*
X216485D01*
X220385Y267500D01*
X226000D01*
X205515Y269000D02*
X207915Y271400D01*
X214000Y265400D02*
X216900Y262500D01*
X197500Y269000D02*
X205515D01*
X219000Y289400D02*
X225500D01*
X229800Y291243D02*
X229858D01*
X242500Y278601D01*
Y274000D02*
Y278601D01*
X230299Y284601D02*
X234893Y280007D01*
X230299Y284601D02*
X230299D01*
X225500Y289400D02*
X230299Y284601D01*
X235000Y291800D02*
X247500Y279300D01*
Y274000D02*
Y279300D01*
X237500Y274000D02*
Y277393D01*
X234893Y280000D02*
X237500Y277393D01*
X234893Y280000D02*
Y280007D01*
X235000Y291800D02*
Y329000D01*
X244000Y290271D02*
X252500Y281770D01*
Y274000D02*
Y281770D01*
X213000Y351000D02*
X235000Y329000D01*
X261500Y278622D02*
Y285057D01*
X244000Y290271D02*
Y298000D01*
X243330D02*
X244000D01*
X267500Y274000D02*
Y289100D01*
X262400Y274100D02*
Y277722D01*
X261500Y278622D02*
X262400Y277722D01*
X274500Y248000D02*
X287678D01*
X274000Y247500D02*
X274500Y248000D01*
X287700Y247978D02*
X287700D01*
X287678Y248000D02*
X287700Y247978D01*
X287700D02*
X290686Y250964D01*
X274000Y242500D02*
X285400D01*
X290686Y250964D02*
X291464D01*
X278500Y262500D02*
X280500Y264500D01*
X274000Y262500D02*
X278500D01*
X280500Y264500D02*
Y272700D01*
X293500Y273343D02*
X295257Y275100D01*
X293500Y262500D02*
Y273343D01*
X283500Y252500D02*
X293500Y262500D01*
X295278Y275100D02*
X307000Y286822D01*
X295257Y275100D02*
X295278D01*
X307000Y286822D02*
Y287000D01*
X279500Y257500D02*
X287000Y265000D01*
X274000Y252500D02*
X283500D01*
X307000Y287000D02*
X307500Y287500D01*
X317500Y360000D02*
X335600D01*
X274000Y267500D02*
Y276700D01*
Y257500D02*
X279500D01*
X307500Y287500D02*
X336200D01*
X273600Y215700D02*
X274700Y214600D01*
X267636Y215700D02*
X273600D01*
X262500Y220836D02*
X267636Y215700D01*
X262500Y220836D02*
Y226000D01*
X215200Y242500D02*
X226000D01*
X213300Y251000D02*
Y255200D01*
X274000Y242500D02*
X274000Y242500D01*
X242500Y217500D02*
Y226000D01*
X227000Y202000D02*
X242500Y217500D01*
X257500Y217300D02*
X260200Y214600D01*
X257500Y217300D02*
Y226000D01*
X257400Y225900D02*
X257500Y226000D01*
X252500Y204500D02*
Y226000D01*
X250000Y202000D02*
X252500Y204500D01*
X250000Y195500D02*
Y202000D01*
X230300Y214900D02*
X231300Y213900D01*
X207300Y231300D02*
X211172Y235172D01*
X207000Y231300D02*
X207300D01*
X197500Y223000D02*
X213414D01*
X222914Y232500D01*
X242500Y257500D02*
X247500Y252500D01*
X250000Y250000D01*
X226000Y252500D02*
X247500D01*
X226000Y257500D02*
X242500D01*
X216900Y262500D02*
X226000D01*
X220057Y235300D02*
X222257Y237500D01*
X211300Y235300D02*
X220057D01*
X222914Y232500D02*
X226000D01*
X222257Y237500D02*
X226000D01*
X178500Y212600D02*
Y223000D01*
X176500Y210600D02*
X178500Y212600D01*
X176500Y200000D02*
Y210600D01*
X226000Y262500D02*
X226000Y262500D01*
X178500Y269000D02*
Y281100D01*
X176500Y283100D02*
X178500Y281100D01*
X176500Y283100D02*
Y293000D01*
X227900Y274000D02*
X232500D01*
X227300Y226000D02*
X232500D01*
X257500Y274000D02*
X257600Y274100D01*
X262400D02*
X262500Y274000D01*
X211172Y235172D02*
X211300Y235300D01*
X229800Y291243D02*
Y304700D01*
X204000Y328000D02*
X222300Y309700D01*
Y309400D02*
X225100D01*
X229800Y304700D01*
X222300Y309400D02*
Y309700D01*
X152500Y351000D02*
X213000D01*
X237500Y220100D02*
Y226000D01*
X231300Y213900D02*
X237500Y220100D01*
X230300Y214500D02*
Y214900D01*
X152500Y328000D02*
X204000D01*
X274000Y267500D02*
X274000Y267500D01*
X281500Y237500D02*
X287000Y232000D01*
X274000Y237500D02*
X281500D01*
X274000Y225000D02*
X277000Y222000D01*
X274000Y225000D02*
Y232500D01*
X244500Y206500D02*
X247500Y209500D01*
Y226000D01*
X227000Y195500D02*
Y202000D01*
X211172Y235172D02*
X211172D01*
D23*
X207000Y293000D02*
X209000Y291000D01*
Y287000D02*
Y291000D01*
Y287000D02*
X222000Y274000D01*
X195500Y293000D02*
X207000D01*
X222000Y274000D02*
X227900D01*
X122000Y273000D02*
X133500D01*
X115000Y280000D02*
X122000Y273000D01*
X115000Y280000D02*
Y285000D01*
X282000Y306500D02*
X301500Y326000D01*
X282000Y291700D02*
Y306500D01*
X273947Y283647D02*
X282000Y291700D01*
X273947Y276753D02*
Y283647D01*
X254500Y337000D02*
Y383000D01*
X271400Y293000D02*
Y322600D01*
X267500Y289100D02*
X271400Y293000D01*
X288300Y239600D02*
X297500D01*
X285400Y242500D02*
X288300Y239600D01*
X297500D02*
X300500Y242600D01*
X304400Y253200D02*
X309900D01*
X300500Y249300D02*
X304400Y253200D01*
X300500Y242600D02*
Y249300D01*
X301500Y326000D02*
Y336600D01*
X301100Y337000D02*
X301500Y336600D01*
X273500Y337000D02*
X301100D01*
X268000Y326000D02*
X271400Y322600D01*
X288000Y266000D02*
Y275621D01*
X287000Y265000D02*
X288000Y266000D01*
Y275621D02*
X292979Y280600D01*
X293000D02*
X301500Y289100D01*
X292979Y280600D02*
X293000D01*
X301500Y289100D02*
Y297600D01*
X293700Y195600D02*
X307200D01*
X289500Y359100D02*
X299000D01*
X299500Y359600D01*
X273400Y360100D02*
Y371500D01*
Y360100D02*
X273500Y360000D01*
X274700Y214600D02*
X293700Y195600D01*
X210500Y242500D02*
X215200D01*
X152500Y257000D02*
X193000D01*
X207000Y246000D02*
X210500Y242500D01*
X152500Y250000D02*
Y257000D01*
X193000D02*
X195500Y254500D01*
Y246000D02*
Y254500D01*
Y246000D02*
X207000D01*
X291464Y250964D02*
X301000Y260500D01*
Y265600D01*
X273500Y383000D02*
X276400D01*
X254500D02*
Y406000D01*
X274000Y195500D02*
Y200200D01*
X262650Y211550D02*
X274000Y200200D01*
X260200Y214000D02*
X262650Y211550D01*
X262650D01*
X286000Y178500D02*
X288000Y176500D01*
X286000Y178500D02*
Y192000D01*
X282500Y195500D02*
X286000Y192000D01*
X288000Y176500D02*
X297000D01*
X222800Y212000D02*
Y221500D01*
X210800Y200000D02*
X222800Y212000D01*
X195500Y200000D02*
X210800D01*
X222800Y221500D02*
X227300Y226000D01*
X273500Y406000D02*
X287000D01*
X244500Y317500D02*
X258000D01*
X320000Y195500D02*
X333500D01*
X250000Y163000D02*
Y176500D01*
X301500Y297600D02*
Y311100D01*
X274000Y163000D02*
Y176500D01*
X227000Y163000D02*
Y176500D01*
X120000Y296000D02*
X133500D01*
X120000Y328000D02*
X133500D01*
X120000Y351000D02*
X133500D01*
X195500Y293000D02*
Y310500D01*
X258000Y326000D02*
X268000D01*
X254500Y329500D02*
X258000Y326000D01*
X254500Y329500D02*
Y337000D01*
X120000Y250000D02*
X133500D01*
X299500Y217600D02*
Y230100D01*
X298500Y216600D02*
X299500Y217600D01*
X293000Y216600D02*
X298500D01*
X287000Y222000D02*
X292000Y217000D01*
X287000Y222000D02*
Y232000D01*
X274000Y195500D02*
X282500D01*
X297000Y176500D02*
X297000Y176500D01*
X320000D01*
X195500Y182500D02*
Y200000D01*
D24*
X50000Y300000D02*
D03*
Y200000D02*
D03*
X450000Y140000D02*
D03*
Y360000D02*
D03*
Y200000D02*
D03*
Y300000D02*
D03*
D25*
X104000Y409000D02*
D03*
X385500Y380300D02*
D03*
X104000Y155000D02*
D03*
Y145000D02*
D03*
X95000D02*
D03*
X85000Y155000D02*
D03*
Y135000D02*
D03*
X95000Y125000D02*
D03*
X105000Y115000D02*
D03*
X85000D02*
D03*
X95000Y105000D02*
D03*
X105000Y95000D02*
D03*
X85000D02*
D03*
X95000Y85000D02*
D03*
X110000D02*
D03*
Y105000D02*
D03*
Y345000D02*
D03*
Y325000D02*
D03*
X95000D02*
D03*
X85000Y335000D02*
D03*
X105000D02*
D03*
X95000Y345000D02*
D03*
X85000Y355000D02*
D03*
X105000D02*
D03*
X95000Y365000D02*
D03*
X85000Y375000D02*
D03*
Y395000D02*
D03*
X95000Y385000D02*
D03*
X173000Y235400D02*
D03*
X180000D02*
D03*
X340000Y221000D02*
D03*
Y214000D02*
D03*
X329000Y246000D02*
D03*
Y239000D02*
D03*
X329500Y269000D02*
D03*
Y262000D02*
D03*
X330000Y294000D02*
D03*
X324000Y326000D02*
D03*
X377000Y221000D02*
D03*
X369000Y185000D02*
D03*
Y210000D02*
D03*
X394000Y221000D02*
D03*
X403000Y209000D02*
D03*
Y185000D02*
D03*
X369000Y315000D02*
D03*
Y291000D02*
D03*
X378000Y279000D02*
D03*
X403000Y290000D02*
D03*
Y315000D02*
D03*
X140000Y200000D02*
D03*
Y191000D02*
D03*
Y209000D02*
D03*
X192000Y431000D02*
D03*
Y449000D02*
D03*
X256000Y290000D02*
D03*
X214000Y265400D02*
D03*
X219000Y289400D02*
D03*
X244000Y298000D02*
D03*
X115000Y285000D02*
D03*
X280500Y272700D02*
D03*
X289500Y359100D02*
D03*
X273400Y371500D02*
D03*
X386500Y118800D02*
D03*
X309900Y253200D02*
D03*
X207000Y231300D02*
D03*
X239700Y260800D02*
D03*
X222300Y309400D02*
D03*
X230300Y214500D02*
D03*
X195000Y370950D02*
D03*
X190000Y130950D02*
D03*
X135950D02*
D03*
Y169050D02*
D03*
Y370950D02*
D03*
X395000Y279000D02*
D03*
X192000Y440000D02*
D03*
X104000Y385000D02*
D03*
Y395000D02*
D03*
X239700Y238500D02*
D03*
X260900D02*
D03*
Y260800D02*
D03*
X287000Y406000D02*
D03*
X244500Y317500D02*
D03*
X317000Y326000D02*
D03*
X330000Y301000D02*
D03*
X333500Y195500D02*
D03*
X250000Y163000D02*
D03*
X301500Y311100D02*
D03*
X274000Y163000D02*
D03*
X227000D02*
D03*
X120000Y296000D02*
D03*
X120000Y328000D02*
D03*
Y351000D02*
D03*
X195500Y310500D02*
D03*
X120000Y250000D02*
D03*
X299500Y230100D02*
D03*
X277000Y222000D02*
D03*
X307500Y195500D02*
D03*
X244500Y206500D02*
D03*
X195500Y182500D02*
D03*
X213300Y255200D02*
D03*
D31*
X250000Y250000D02*
D03*
D32*
X274000Y267500D02*
D03*
Y262500D02*
D03*
Y257500D02*
D03*
Y252500D02*
D03*
Y247500D02*
D03*
Y242500D02*
D03*
Y237500D02*
D03*
Y232500D02*
D03*
X226000D02*
D03*
Y237500D02*
D03*
Y242500D02*
D03*
Y247500D02*
D03*
Y252500D02*
D03*
Y257500D02*
D03*
Y262500D02*
D03*
Y267500D02*
D03*
D33*
X267500Y226000D02*
D03*
X262500D02*
D03*
X257500D02*
D03*
X252500D02*
D03*
X247500D02*
D03*
X242500D02*
D03*
X237500D02*
D03*
X232500D02*
D03*
Y274000D02*
D03*
X237500D02*
D03*
X242500D02*
D03*
X247500D02*
D03*
X252500D02*
D03*
X257500D02*
D03*
X262500D02*
D03*
X267500D02*
D03*
D34*
X227000Y176500D02*
D03*
Y195500D02*
D03*
X250000Y195500D02*
D03*
Y176500D02*
D03*
X274000Y176500D02*
D03*
Y195500D02*
D03*
X297000Y195500D02*
D03*
Y176500D02*
D03*
X320000Y176500D02*
D03*
Y195500D02*
D03*
X258000Y317500D02*
D03*
Y298500D02*
D03*
D35*
X299500Y217600D02*
D03*
X330500D02*
D03*
D36*
X300500Y242600D02*
D03*
X319500D02*
D03*
X320000Y265600D02*
D03*
X301000D02*
D03*
X301500Y297600D02*
D03*
X320500D02*
D03*
X320500Y336600D02*
D03*
X301500D02*
D03*
X176500Y200000D02*
D03*
X195500D02*
D03*
X195500Y246000D02*
D03*
X176500D02*
D03*
X195500Y293000D02*
D03*
X176500D02*
D03*
D37*
X299500Y359600D02*
D03*
X318500D02*
D03*
X273500Y337000D02*
D03*
X254500D02*
D03*
X254500Y360000D02*
D03*
X273500D02*
D03*
X273500Y383000D02*
D03*
X254500D02*
D03*
X273500Y406000D02*
D03*
X254500D02*
D03*
X197500Y223000D02*
D03*
X178500D02*
D03*
X178500Y269000D02*
D03*
X197500D02*
D03*
X133500Y250000D02*
D03*
X152500D02*
D03*
X152500Y273000D02*
D03*
X133500D02*
D03*
X152500Y296000D02*
D03*
X133500D02*
D03*
X133500Y328000D02*
D03*
X152500D02*
D03*
X133500Y351000D02*
D03*
X152500D02*
D03*
D38*
X356000Y287500D02*
Y370600D01*
X347500Y279000D02*
X356000Y287500D01*
X343500Y383100D02*
X356000Y370600D01*
X301000Y268192D02*
X311808Y279000D01*
X301000Y265600D02*
Y268192D01*
X311808Y279000D02*
X347500D01*
X347500Y279000D01*
X276500Y383100D02*
X343500D01*
X276400Y383000D02*
X276500Y383100D01*
D39*
X152500Y257000D02*
Y295500D01*
M02*
