G04*
G04 #@! TF.GenerationSoftware,Altium Limited,Altium Designer,18.0.12 (696)*
G04*
G04 Layer_Physical_Order=5*
G04 Layer_Color=128*
%FSLAX44Y44*%
%MOMM*%
G71*
G01*
G75*
%ADD26C,1.0160*%
%ADD27C,2.5160*%
G04:AMPARAMS|DCode=28|XSize=3.516mm|YSize=3.516mm|CornerRadius=0mm|HoleSize=0mm|Usage=FLASHONLY|Rotation=0.000|XOffset=0mm|YOffset=0mm|HoleType=Round|Shape=Relief|Width=1mm|Gap=0.5mm|Entries=4|*
%AMTHD28*
7,0,0,3.5160,2.5160,1.0000,45*
%
%ADD28THD28*%
%ADD29C,1.3160*%
D26*
X0Y0D02*
Y500000D01*
X500000D01*
Y0D02*
Y500000D01*
X0Y0D02*
X500000D01*
D27*
X50000Y300000D02*
D03*
X450000Y140000D02*
D03*
Y360000D02*
D03*
D28*
X50000Y200000D02*
D03*
X450000D02*
D03*
Y300000D02*
D03*
D29*
X104000Y409000D02*
D03*
X385500Y380300D02*
D03*
X256000Y290000D02*
D03*
X214000Y265400D02*
D03*
X219000Y289400D02*
D03*
X115000Y285000D02*
D03*
X280500Y272700D02*
D03*
X289500Y359100D02*
D03*
X273400Y371500D02*
D03*
X386500Y118800D02*
D03*
X309900Y253200D02*
D03*
X207000Y231300D02*
D03*
X222300Y309400D02*
D03*
X230300Y214500D02*
D03*
X195000Y370950D02*
D03*
X190000Y130950D02*
D03*
X135950D02*
D03*
Y169050D02*
D03*
Y370950D02*
D03*
X301500Y311100D02*
D03*
X274000Y163000D02*
D03*
X227000D02*
D03*
X120000Y296000D02*
D03*
X120000Y328000D02*
D03*
Y351000D02*
D03*
X195500Y310500D02*
D03*
X120000Y250000D02*
D03*
X299500Y230100D02*
D03*
X307500Y195500D02*
D03*
X244500Y206500D02*
D03*
X195500Y182500D02*
D03*
X213300Y255200D02*
D03*
M02*
