G04*
G04 #@! TF.GenerationSoftware,Altium Limited,Altium Designer,18.0.12 (696)*
G04*
G04 Layer_Color=16711935*
%FSLAX44Y44*%
%MOMM*%
G71*
G01*
G75*
%ADD22C,4.2032*%
%ADD40R,3.4020X3.4020*%
%ADD41R,0.7020X0.3320*%
%ADD42R,0.3320X0.7020*%
%ADD43R,1.5032X0.9032*%
%ADD44R,1.1032X1.8032*%
%ADD45R,1.1032X1.5032*%
%ADD46R,0.9032X1.5032*%
D22*
X50000Y300000D02*
D03*
Y200000D02*
D03*
X450000Y140000D02*
D03*
Y360000D02*
D03*
Y200000D02*
D03*
Y300000D02*
D03*
D40*
X250000Y250000D02*
D03*
D41*
X274000Y267500D02*
D03*
Y262500D02*
D03*
Y257500D02*
D03*
Y252500D02*
D03*
Y247500D02*
D03*
Y242500D02*
D03*
Y237500D02*
D03*
Y232500D02*
D03*
X226000D02*
D03*
Y237500D02*
D03*
Y242500D02*
D03*
Y247500D02*
D03*
Y252500D02*
D03*
Y257500D02*
D03*
Y262500D02*
D03*
Y267500D02*
D03*
D42*
X267500Y226000D02*
D03*
X262500D02*
D03*
X257500D02*
D03*
X252500D02*
D03*
X247500D02*
D03*
X242500D02*
D03*
X237500D02*
D03*
X232500D02*
D03*
Y274000D02*
D03*
X237500D02*
D03*
X242500D02*
D03*
X247500D02*
D03*
X252500D02*
D03*
X257500D02*
D03*
X262500D02*
D03*
X267500D02*
D03*
D43*
X227000Y176500D02*
D03*
Y195500D02*
D03*
X250000Y195500D02*
D03*
Y176500D02*
D03*
X274000Y176500D02*
D03*
Y195500D02*
D03*
X297000Y195500D02*
D03*
Y176500D02*
D03*
X320000Y176500D02*
D03*
Y195500D02*
D03*
X258000Y317500D02*
D03*
Y298500D02*
D03*
D44*
X299500Y217600D02*
D03*
X330500D02*
D03*
D45*
X300500Y242600D02*
D03*
X319500D02*
D03*
X320000Y265600D02*
D03*
X301000D02*
D03*
X301500Y297600D02*
D03*
X320500D02*
D03*
X320500Y336600D02*
D03*
X301500D02*
D03*
X176500Y200000D02*
D03*
X195500D02*
D03*
X195500Y246000D02*
D03*
X176500D02*
D03*
X195500Y293000D02*
D03*
X176500D02*
D03*
D46*
X299500Y359600D02*
D03*
X318500D02*
D03*
X273500Y337000D02*
D03*
X254500D02*
D03*
X254500Y360000D02*
D03*
X273500D02*
D03*
X273500Y383000D02*
D03*
X254500D02*
D03*
X273500Y406000D02*
D03*
X254500D02*
D03*
X197500Y223000D02*
D03*
X178500D02*
D03*
X178500Y269000D02*
D03*
X197500D02*
D03*
X133500Y250000D02*
D03*
X152500D02*
D03*
X152500Y273000D02*
D03*
X133500D02*
D03*
X152500Y296000D02*
D03*
X133500D02*
D03*
X133500Y328000D02*
D03*
X152500D02*
D03*
X133500Y351000D02*
D03*
X152500D02*
D03*
M02*
