G04*
G04 #@! TF.GenerationSoftware,Altium Limited,Altium Designer,18.0.12 (696)*
G04*
G04 Layer_Color=65535*
%FSLAX44Y44*%
%MOMM*%
G71*
G01*
G75*
%ADD10C,0.2000*%
%ADD11C,0.2540*%
D10*
X143825Y175000D02*
G03*
X150175Y175000I3175J0D01*
G01*
X143825Y415000D02*
G03*
X150175Y415000I3175J0D01*
G01*
X127000Y175000D02*
X143825D01*
X150175D02*
X167000D01*
X127000Y125000D02*
X167000D01*
X127000Y365000D02*
X167000D01*
X150175Y415000D02*
X167000D01*
X127000D02*
X143825D01*
X210000Y193000D02*
X336000D01*
X210000Y67000D02*
X336000D01*
Y98000D01*
X210000Y67000D02*
Y98000D01*
X336000Y162000D02*
Y193000D01*
X210000Y162000D02*
Y193000D01*
X142000Y184000D02*
Y216000D01*
X190000D01*
Y184000D02*
Y216000D01*
X142000Y184000D02*
X190000D01*
Y424000D02*
Y456000D01*
X142000Y424000D02*
X190000D01*
X142000D02*
Y456000D01*
X190000D01*
X414000Y119000D02*
Y221000D01*
X358000D02*
X414000D01*
X358000Y119000D02*
Y221000D01*
Y119000D02*
X414000D01*
X358000Y114000D02*
X414000D01*
X358000D02*
Y119000D01*
X414000Y114000D02*
Y119000D01*
X358000Y279000D02*
Y381000D01*
Y279000D02*
X414000D01*
Y381000D01*
X358000D02*
X414000D01*
X358000Y386000D02*
X414000D01*
Y381000D02*
Y386000D01*
X358000Y381000D02*
Y386000D01*
X210000Y307000D02*
X336000D01*
X210000Y433000D02*
X336000D01*
X210000Y402000D02*
Y433000D01*
X336000Y402000D02*
Y433000D01*
X210000Y307000D02*
Y338000D01*
X336000Y307000D02*
Y338000D01*
X112000Y178000D02*
Y175001D01*
Y176500D01*
X120997D01*
X119498Y178000D01*
X112000Y418000D02*
Y415001D01*
Y416501D01*
X120997D01*
X119498Y418000D01*
D11*
X413500Y398018D02*
X423657D01*
X418578Y403096D02*
Y392939D01*
X436353Y405635D02*
X431274D01*
X428735Y403096D01*
Y392939D01*
X431274Y390400D01*
X436353D01*
X438892Y392939D01*
Y403096D01*
X436353Y405635D01*
X443970D02*
Y392939D01*
X446509Y390400D01*
X451588D01*
X454127Y392939D01*
Y405635D01*
X459205D02*
X469362D01*
X464284D01*
Y390400D01*
X484597D02*
X474440D01*
X484597Y400557D01*
Y403096D01*
X482058Y405635D01*
X476979D01*
X474440Y403096D01*
X412900Y105817D02*
X423057D01*
X417978Y110896D02*
Y100739D01*
X435753Y113435D02*
X430674D01*
X428135Y110896D01*
Y100739D01*
X430674Y98200D01*
X435753D01*
X438292Y100739D01*
Y110896D01*
X435753Y113435D01*
X443370D02*
Y100739D01*
X445909Y98200D01*
X450988D01*
X453527Y100739D01*
Y113435D01*
X458605D02*
X468762D01*
X463684D01*
Y98200D01*
X473840D02*
X478919D01*
X476380D01*
Y113435D01*
X473840Y110896D01*
X441257Y235696D02*
X438717Y238235D01*
X433639D01*
X431100Y235696D01*
Y225539D01*
X433639Y223000D01*
X438717D01*
X441257Y225539D01*
Y230618D01*
X436178D01*
X446335Y223000D02*
Y238235D01*
X456492Y223000D01*
Y238235D01*
X461570D02*
Y223000D01*
X469188D01*
X471727Y225539D01*
Y235696D01*
X469188Y238235D01*
X461570D01*
X441557Y272296D02*
X439017Y274835D01*
X433939D01*
X431400Y272296D01*
Y262139D01*
X433939Y259600D01*
X439017D01*
X441557Y262139D01*
Y267218D01*
X436478D01*
X446635Y259600D02*
Y274835D01*
X456792Y259600D01*
Y274835D01*
X461870D02*
Y259600D01*
X469488D01*
X472027Y262139D01*
Y272296D01*
X469488Y274835D01*
X461870D01*
X39957Y170896D02*
X37418Y173435D01*
X32339D01*
X29800Y170896D01*
Y160739D01*
X32339Y158200D01*
X37418D01*
X39957Y160739D01*
Y165818D01*
X34878D01*
X45035Y158200D02*
Y173435D01*
X55192Y158200D01*
Y173435D01*
X60270D02*
Y158200D01*
X67888D01*
X70427Y160739D01*
Y170896D01*
X67888Y173435D01*
X60270D01*
X20400Y334917D02*
X30557D01*
X25478Y339996D02*
Y329839D01*
X35635Y342535D02*
Y332378D01*
X40713Y327300D01*
X45792Y332378D01*
Y342535D01*
X50870D02*
X55949D01*
X53409D01*
Y327300D01*
X50870D01*
X55949D01*
X63566D02*
Y342535D01*
X73723Y327300D01*
Y342535D01*
X259600Y213135D02*
Y197900D01*
X269757D01*
X274835D02*
X279913D01*
X277374D01*
Y213135D01*
X274835Y210596D01*
X145957Y106539D02*
Y116696D01*
X143418Y119235D01*
X138339D01*
X135800Y116696D01*
Y106539D01*
X138339Y104000D01*
X143418D01*
X140878Y109078D02*
X145957Y104000D01*
X143418D02*
X145957Y106539D01*
X151035Y104000D02*
X156113D01*
X153574D01*
Y119235D01*
X151035Y116696D01*
X152357Y233896D02*
X149817Y236435D01*
X144739D01*
X142200Y233896D01*
Y223739D01*
X144739Y221200D01*
X149817D01*
X152357Y223739D01*
X167592Y236435D02*
X157435D01*
Y228818D01*
X162513Y231357D01*
X165053D01*
X167592Y228818D01*
Y223739D01*
X165053Y221200D01*
X159974D01*
X157435Y223739D01*
X151357Y475296D02*
X148818Y477835D01*
X143739D01*
X141200Y475296D01*
Y465139D01*
X143739Y462600D01*
X148818D01*
X151357Y465139D01*
X166592Y477835D02*
X161513Y475296D01*
X156435Y470218D01*
Y465139D01*
X158974Y462600D01*
X164053D01*
X166592Y465139D01*
Y467678D01*
X164053Y470218D01*
X156435D01*
X145257Y346539D02*
Y356696D01*
X142718Y359235D01*
X137639D01*
X135100Y356696D01*
Y346539D01*
X137639Y344000D01*
X142718D01*
X140178Y349078D02*
X145257Y344000D01*
X142718D02*
X145257Y346539D01*
X160492Y344000D02*
X150335D01*
X160492Y354157D01*
Y356696D01*
X157953Y359235D01*
X152874D01*
X150335Y356696D01*
X382457Y240496D02*
X379917Y243035D01*
X374839D01*
X372300Y240496D01*
Y230339D01*
X374839Y227800D01*
X379917D01*
X382457Y230339D01*
X387535D02*
X390074Y227800D01*
X395153D01*
X397692Y230339D01*
Y240496D01*
X395153Y243035D01*
X390074D01*
X387535Y240496D01*
Y237957D01*
X390074Y235417D01*
X397692D01*
X376057Y269196D02*
X373517Y271735D01*
X368439D01*
X365900Y269196D01*
Y259039D01*
X368439Y256500D01*
X373517D01*
X376057Y259039D01*
X381135Y256500D02*
X386213D01*
X383674D01*
Y271735D01*
X381135Y269196D01*
X393831D02*
X396370Y271735D01*
X401449D01*
X403988Y269196D01*
Y259039D01*
X401449Y256500D01*
X396370D01*
X393831Y259039D01*
Y269196D01*
X261400Y454135D02*
Y438900D01*
X271557D01*
X286792D02*
X276635D01*
X286792Y449057D01*
Y451596D01*
X284253Y454135D01*
X279174D01*
X276635Y451596D01*
M02*
