G04*
G04 #@! TF.GenerationSoftware,Altium Limited,Altium Designer,18.0.12 (696)*
G04*
G04 Layer_Color=128*
%FSLAX44Y44*%
%MOMM*%
G71*
G01*
G75*
%ADD31R,3.3000X3.3000*%
%ADD32R,0.6000X0.2300*%
%ADD33R,0.2300X0.6000*%
%ADD34R,1.3000X0.7000*%
%ADD35R,0.9000X1.6000*%
%ADD36R,0.9000X1.3000*%
%ADD37R,0.7000X1.3000*%
D31*
X250000Y250000D02*
D03*
D32*
X274000Y267500D02*
D03*
Y262500D02*
D03*
Y257500D02*
D03*
Y252500D02*
D03*
Y247500D02*
D03*
Y242500D02*
D03*
Y237500D02*
D03*
Y232500D02*
D03*
X226000D02*
D03*
Y237500D02*
D03*
Y242500D02*
D03*
Y247500D02*
D03*
Y252500D02*
D03*
Y257500D02*
D03*
Y262500D02*
D03*
Y267500D02*
D03*
D33*
X267500Y226000D02*
D03*
X262500D02*
D03*
X257500D02*
D03*
X252500D02*
D03*
X247500D02*
D03*
X242500D02*
D03*
X237500D02*
D03*
X232500D02*
D03*
Y274000D02*
D03*
X237500D02*
D03*
X242500D02*
D03*
X247500D02*
D03*
X252500D02*
D03*
X257500D02*
D03*
X262500D02*
D03*
X267500D02*
D03*
D34*
X227000Y176500D02*
D03*
Y195500D02*
D03*
X250000Y195500D02*
D03*
Y176500D02*
D03*
X274000Y176500D02*
D03*
Y195500D02*
D03*
X297000Y195500D02*
D03*
Y176500D02*
D03*
X320000Y176500D02*
D03*
Y195500D02*
D03*
X258000Y317500D02*
D03*
Y298500D02*
D03*
D35*
X299500Y217600D02*
D03*
X330500D02*
D03*
D36*
X300500Y242600D02*
D03*
X319500D02*
D03*
X320000Y265600D02*
D03*
X301000D02*
D03*
X301500Y297600D02*
D03*
X320500D02*
D03*
X320500Y336600D02*
D03*
X301500D02*
D03*
X176500Y200000D02*
D03*
X195500D02*
D03*
X195500Y246000D02*
D03*
X176500D02*
D03*
X195500Y293000D02*
D03*
X176500D02*
D03*
D37*
X299500Y359600D02*
D03*
X318500D02*
D03*
X273500Y337000D02*
D03*
X254500D02*
D03*
X254500Y360000D02*
D03*
X273500D02*
D03*
X273500Y383000D02*
D03*
X254500D02*
D03*
X273500Y406000D02*
D03*
X254500D02*
D03*
X197500Y223000D02*
D03*
X178500D02*
D03*
X178500Y269000D02*
D03*
X197500D02*
D03*
X133500Y250000D02*
D03*
X152500D02*
D03*
X152500Y273000D02*
D03*
X133500D02*
D03*
X152500Y296000D02*
D03*
X133500D02*
D03*
X133500Y328000D02*
D03*
X152500D02*
D03*
X133500Y351000D02*
D03*
X152500D02*
D03*
M02*
