G04*
G04 #@! TF.GenerationSoftware,Altium Limited,Altium Designer,18.0.12 (696)*
G04*
G04 Layer_Color=32896*
%FSLAX44Y44*%
%MOMM*%
G71*
G01*
G75*
%ADD10C,0.2000*%
%ADD11C,0.2540*%
%ADD47C,0.3500*%
D10*
X276000Y272000D02*
Y274000D01*
Y224000D02*
Y228000D01*
X272000Y224000D02*
X276000D01*
X224000D02*
X228000D01*
X224000D02*
Y228000D01*
Y272000D02*
Y276000D01*
X228000D01*
X272000D02*
X274000D01*
X276000Y274000D01*
X217000Y202000D02*
X237000D01*
X217000Y170000D02*
Y202000D01*
Y170000D02*
X237000D01*
Y202000D01*
X240000Y170000D02*
X260000D01*
Y202000D01*
X240000D02*
X260000D01*
X240000Y170000D02*
Y202000D01*
X264000D02*
X284000D01*
X264000Y170000D02*
Y202000D01*
Y170000D02*
X284000D01*
Y202000D01*
X287000Y170000D02*
X307000D01*
Y202000D01*
X287000D02*
X307000D01*
X287000Y170000D02*
Y202000D01*
X310000D02*
X330000D01*
X310000Y170000D02*
Y202000D01*
Y170000D02*
X330000D01*
Y202000D01*
X338000Y205600D02*
Y229600D01*
X292000D02*
X338000D01*
X292000Y205600D02*
Y229600D01*
Y205600D02*
X338000D01*
X328000Y232600D02*
Y252600D01*
X292000D02*
X328000D01*
X292000Y232600D02*
Y252600D01*
Y232600D02*
X328000D01*
X292500Y255600D02*
Y275600D01*
Y255600D02*
X328500D01*
Y275600D01*
X292500D02*
X328500D01*
X329000Y287600D02*
Y307600D01*
X293000D02*
X329000D01*
X293000Y287600D02*
Y307600D01*
Y287600D02*
X329000D01*
X293000Y326600D02*
Y346600D01*
Y326600D02*
X329000D01*
Y346600D01*
X293000D02*
X329000D01*
X325000Y349600D02*
Y369600D01*
X293000D02*
X325000D01*
X293000Y349600D02*
Y369600D01*
Y349600D02*
X325000D01*
X248000Y292000D02*
X268000D01*
Y324000D01*
X248000D02*
X268000D01*
X248000Y292000D02*
Y324000D01*
X248000Y327000D02*
Y347000D01*
Y327000D02*
X280000D01*
Y347000D01*
X248000D02*
X280000D01*
Y350000D02*
Y370000D01*
X248000D02*
X280000D01*
X248000Y350000D02*
Y370000D01*
Y350000D02*
X280000D01*
X248000Y373000D02*
Y393000D01*
Y373000D02*
X280000D01*
Y393000D01*
X248000D02*
X280000D01*
X248000Y396000D02*
Y416000D01*
Y396000D02*
X280000D01*
Y416000D01*
X248000D02*
X280000D01*
X204000Y190000D02*
Y210000D01*
X168000D02*
X204000D01*
X168000Y190000D02*
Y210000D01*
Y190000D02*
X204000D01*
X172000Y213000D02*
Y233000D01*
Y213000D02*
X204000D01*
Y233000D01*
X172000D02*
X204000D01*
X168000Y236000D02*
Y256000D01*
Y236000D02*
X204000D01*
Y256000D01*
X168000D02*
X204000D01*
Y259000D02*
Y279000D01*
X172000D02*
X204000D01*
X172000Y259000D02*
Y279000D01*
Y259000D02*
X204000D01*
X168000Y283000D02*
Y303000D01*
Y283000D02*
X204000D01*
Y303000D01*
X168000D02*
X204000D01*
X159000Y240000D02*
Y260000D01*
X127000D02*
X159000D01*
X127000Y240000D02*
Y260000D01*
Y240000D02*
X159000D01*
X127000Y263000D02*
Y283000D01*
Y263000D02*
X159000D01*
Y283000D01*
X127000D02*
X159000D01*
X127000Y286000D02*
Y306000D01*
Y286000D02*
X159000D01*
Y306000D01*
X127000D02*
X159000D01*
Y318000D02*
Y338000D01*
X127000D02*
X159000D01*
X127000Y318000D02*
Y338000D01*
Y318000D02*
X159000D01*
Y341000D02*
Y361000D01*
X127000D02*
X159000D01*
X127000Y341000D02*
Y361000D01*
Y341000D02*
X159000D01*
X286800Y265900D02*
X283801D01*
X285301D01*
Y274897D01*
X286800Y273398D01*
D11*
X480000Y35235D02*
Y20000D01*
Y27617D01*
X477461Y30157D01*
X472383D01*
X469843Y27617D01*
Y20000D01*
X462226Y32696D02*
Y30157D01*
X464765D01*
X459687D01*
X462226D01*
Y22539D01*
X459687Y20000D01*
X449530Y32696D02*
Y30157D01*
X452069D01*
X446991D01*
X449530D01*
Y22539D01*
X446991Y20000D01*
X439373Y14922D02*
Y30157D01*
X431756D01*
X429216Y27617D01*
Y22539D01*
X431756Y20000D01*
X439373D01*
X424138D02*
X416521D01*
X413981Y22539D01*
X416521Y25078D01*
X421599D01*
X424138Y27617D01*
X421599Y30157D01*
X413981D01*
X408903Y20000D02*
X398746Y30157D01*
X393668Y20000D02*
X383511Y30157D01*
X378433D02*
X375894D01*
Y27617D01*
X378433D01*
Y30157D01*
Y22539D02*
X375894D01*
Y20000D01*
X378433D01*
Y22539D01*
X365737Y30157D02*
Y22539D01*
X363198Y20000D01*
X360659Y22539D01*
X358120Y20000D01*
X355580Y22539D01*
Y30157D01*
X350502D02*
Y22539D01*
X347963Y20000D01*
X345424Y22539D01*
X342884Y20000D01*
X340345Y22539D01*
Y30157D01*
X335267D02*
Y22539D01*
X332728Y20000D01*
X330188Y22539D01*
X327649Y20000D01*
X325110Y22539D01*
Y30157D01*
X320032Y20000D02*
Y22539D01*
X317493D01*
Y20000D01*
X320032D01*
X307336D02*
Y30157D01*
X304797D01*
X302257Y27617D01*
Y20000D01*
Y27617D01*
X299718Y30157D01*
X297179Y27617D01*
Y20000D01*
X292101D02*
X287022D01*
X289562D01*
Y30157D01*
X292101D01*
X269248D02*
X276866D01*
X279405Y27617D01*
Y22539D01*
X276866Y20000D01*
X269248D01*
X264170Y30157D02*
Y20000D01*
Y25078D01*
X261631Y27617D01*
X259091Y30157D01*
X256552D01*
X246396Y20000D02*
X241317D01*
X238778Y22539D01*
Y27617D01*
X241317Y30157D01*
X246396D01*
X248935Y27617D01*
Y22539D01*
X246396Y20000D01*
X231161D02*
Y32696D01*
Y27617D01*
X233700D01*
X228621D01*
X231161D01*
Y32696D01*
X228621Y35235D01*
X218465Y30157D02*
X213386D01*
X210847Y27617D01*
Y20000D01*
X218465D01*
X221004Y22539D01*
X218465Y25078D01*
X210847D01*
X205769Y35235D02*
Y20000D01*
X198151D01*
X195612Y22539D01*
Y25078D01*
Y27617D01*
X198151Y30157D01*
X205769D01*
X190534D02*
Y20000D01*
Y25078D01*
X187994Y27617D01*
X185455Y30157D01*
X182916D01*
X175299Y20000D02*
X170220D01*
X172759D01*
Y30157D01*
X175299D01*
X152446D02*
X160063D01*
X162603Y27617D01*
Y22539D01*
X160063Y20000D01*
X152446D01*
X144829Y30157D02*
X139750D01*
X137211Y27617D01*
Y20000D01*
X144829D01*
X147368Y22539D01*
X144829Y25078D01*
X137211D01*
X129593Y32696D02*
Y30157D01*
X132133D01*
X127054D01*
X129593D01*
Y22539D01*
X127054Y20000D01*
X111819D02*
X116897D01*
X119437Y22539D01*
Y27617D01*
X116897Y30157D01*
X111819D01*
X109280Y27617D01*
Y25078D01*
X119437D01*
X104202Y20000D02*
Y22539D01*
X101662D01*
Y20000D01*
X104202D01*
X81349Y30157D02*
X88967D01*
X91506Y27617D01*
Y22539D01*
X88967Y20000D01*
X81349D01*
X73731D02*
X68653D01*
X66114Y22539D01*
Y27617D01*
X68653Y30157D01*
X73731D01*
X76271Y27617D01*
Y22539D01*
X73731Y20000D01*
X61036D02*
Y30157D01*
X58496D01*
X55957Y27617D01*
Y20000D01*
Y27617D01*
X53418Y30157D01*
X50879Y27617D01*
Y20000D01*
X474922Y50000D02*
X480000Y55078D01*
Y60157D01*
X474922Y65235D01*
X457147Y62696D02*
X459687Y65235D01*
X464765D01*
X467304Y62696D01*
Y52539D01*
X464765Y50000D01*
X459687D01*
X457147Y52539D01*
X452069Y50000D02*
X446991Y55078D01*
Y60157D01*
X452069Y65235D01*
X413981Y50000D02*
X424138D01*
X413981Y60157D01*
Y62696D01*
X416521Y65235D01*
X421599D01*
X424138Y62696D01*
X408903D02*
X406364Y65235D01*
X401286D01*
X398746Y62696D01*
Y52539D01*
X401286Y50000D01*
X406364D01*
X408903Y52539D01*
Y62696D01*
X383511Y50000D02*
X393668D01*
X383511Y60157D01*
Y62696D01*
X386050Y65235D01*
X391129D01*
X393668Y62696D01*
X378433D02*
X375894Y65235D01*
X370815D01*
X368276Y62696D01*
Y52539D01*
X370815Y50000D01*
X375894D01*
X378433Y52539D01*
Y62696D01*
X347963Y50000D02*
Y60157D01*
X345424D01*
X342884Y57618D01*
Y50000D01*
Y57618D01*
X340345Y60157D01*
X337806Y57618D01*
Y50000D01*
X332728D02*
X327649D01*
X330188D01*
Y60157D01*
X332728D01*
X309875D02*
X317493D01*
X320032Y57618D01*
Y52539D01*
X317493Y50000D01*
X309875D01*
X304797Y60157D02*
Y50000D01*
Y55078D01*
X302257Y57618D01*
X299718Y60157D01*
X297179D01*
X287022Y50000D02*
X281944D01*
X279405Y52539D01*
Y57618D01*
X281944Y60157D01*
X287022D01*
X289562Y57618D01*
Y52539D01*
X287022Y50000D01*
X264170Y65235D02*
X274327D01*
Y57618D01*
X269248D01*
X274327D01*
Y50000D01*
X256552Y60157D02*
X251474D01*
X248935Y57618D01*
Y50000D01*
X256552D01*
X259091Y52539D01*
X256552Y55078D01*
X248935D01*
X243856Y65235D02*
Y50000D01*
X236239D01*
X233700Y52539D01*
Y55078D01*
Y57618D01*
X236239Y60157D01*
X243856D01*
X228621D02*
Y50000D01*
Y55078D01*
X226082Y57618D01*
X223543Y60157D01*
X221004D01*
X213386Y50000D02*
X208308D01*
X210847D01*
Y60157D01*
X213386D01*
X190534D02*
X198151D01*
X200690Y57618D01*
Y52539D01*
X198151Y50000D01*
X190534D01*
X182916Y60157D02*
X177838D01*
X175299Y57618D01*
Y50000D01*
X182916D01*
X185455Y52539D01*
X182916Y55078D01*
X175299D01*
X167681Y62696D02*
Y60157D01*
X170220D01*
X165142D01*
X167681D01*
Y52539D01*
X165142Y50000D01*
X149907D02*
X154985D01*
X157524Y52539D01*
Y57618D01*
X154985Y60157D01*
X149907D01*
X147368Y57618D01*
Y55078D01*
X157524D01*
X237300Y298235D02*
Y285539D01*
X234761Y283000D01*
X229683D01*
X227143Y285539D01*
Y298235D01*
X222065Y283000D02*
X216987D01*
X219526D01*
Y298235D01*
X222065Y295696D01*
X218800Y121000D02*
X234035D01*
Y128617D01*
X231496Y131157D01*
X226418D01*
X223878Y128617D01*
Y121000D01*
Y126078D02*
X218800Y131157D01*
Y136235D02*
Y141313D01*
Y138774D01*
X234035D01*
X231496Y136235D01*
X218800Y148931D02*
Y154009D01*
Y151470D01*
X234035D01*
X231496Y148931D01*
X242025Y121000D02*
X257260D01*
Y128617D01*
X254721Y131157D01*
X249643D01*
X247103Y128617D01*
Y121000D01*
Y126078D02*
X242025Y131157D01*
X257260Y136235D02*
Y146392D01*
X254721D01*
X244564Y136235D01*
X242025D01*
X265250Y121000D02*
X280485D01*
Y128617D01*
X277946Y131157D01*
X272868D01*
X270328Y128617D01*
Y121000D01*
Y126078D02*
X265250Y131157D01*
Y136235D02*
Y141313D01*
Y138774D01*
X280485D01*
X277946Y136235D01*
Y148931D02*
X280485Y151470D01*
Y156549D01*
X277946Y159088D01*
X275407D01*
X272868Y156549D01*
Y154009D01*
Y156549D01*
X270328Y159088D01*
X267789D01*
X265250Y156549D01*
Y151470D01*
X267789Y148931D01*
X288475Y121000D02*
X303710D01*
Y128617D01*
X301171Y131157D01*
X296092D01*
X293553Y128617D01*
Y121000D01*
Y126078D02*
X288475Y131157D01*
Y136235D02*
Y141313D01*
Y138774D01*
X303710D01*
X301171Y136235D01*
X288475Y159088D02*
Y148931D01*
X298632Y159088D01*
X301171D01*
X303710Y156549D01*
Y151470D01*
X301171Y148931D01*
X311700Y121000D02*
X326935D01*
Y128617D01*
X324396Y131157D01*
X319317D01*
X316778Y128617D01*
Y121000D01*
Y126078D02*
X311700Y131157D01*
Y136235D02*
Y141313D01*
Y138774D01*
X326935D01*
X324396Y136235D01*
X326935Y148931D02*
Y159088D01*
X324396D01*
X314239Y148931D01*
X311700D01*
X364427Y225618D02*
X366967Y228157D01*
X372045D01*
X374584Y225618D01*
Y215461D01*
X372045Y212922D01*
X366967D01*
X364427Y215461D01*
X359349Y212922D02*
X354271D01*
X356810D01*
Y228157D01*
X359349Y225618D01*
X364427Y248732D02*
X366967Y251271D01*
X372045D01*
X374584Y248732D01*
Y238575D01*
X372045Y236036D01*
X366967D01*
X364427Y238575D01*
X349192Y236036D02*
X359349D01*
X349192Y246193D01*
Y248732D01*
X351731Y251271D01*
X356810D01*
X359349Y248732D01*
X364427Y271592D02*
X366967Y274131D01*
X372045D01*
X374584Y271592D01*
Y261435D01*
X372045Y258896D01*
X366967D01*
X364427Y261435D01*
X359349Y258896D02*
X354271D01*
X356810D01*
Y274131D01*
X359349Y271592D01*
X346653Y258896D02*
X341575D01*
X344114D01*
Y274131D01*
X346653Y271592D01*
X364427Y303596D02*
X366967Y306135D01*
X372045D01*
X374584Y303596D01*
Y293439D01*
X372045Y290900D01*
X366967D01*
X364427Y293439D01*
X351731Y290900D02*
Y306135D01*
X359349Y298517D01*
X349192D01*
X364427Y342712D02*
X366967Y345251D01*
X372045D01*
X374584Y342712D01*
Y332555D01*
X372045Y330016D01*
X366967D01*
X364427Y332555D01*
X359349Y330016D02*
X354271D01*
X356810D01*
Y345251D01*
X359349Y342712D01*
X336496Y330016D02*
X346653D01*
X336496Y340173D01*
Y342712D01*
X339035Y345251D01*
X344114D01*
X346653Y342712D01*
X374584Y353130D02*
Y368365D01*
X366967D01*
X364427Y365826D01*
Y360747D01*
X366967Y358208D01*
X374584D01*
X369506D02*
X364427Y353130D01*
X359349Y365826D02*
X356810Y368365D01*
X351731D01*
X349192Y365826D01*
Y363287D01*
X351731Y360747D01*
X349192Y358208D01*
Y355669D01*
X351731Y353130D01*
X356810D01*
X359349Y355669D01*
Y358208D01*
X356810Y360747D01*
X359349Y363287D01*
Y365826D01*
X356810Y360747D02*
X351731D01*
X239172Y305210D02*
Y320445D01*
X231555D01*
X229015Y317906D01*
Y312827D01*
X231555Y310288D01*
X239172D01*
X234094D02*
X229015Y305210D01*
X213780Y320445D02*
X218859Y317906D01*
X223937Y312827D01*
Y307749D01*
X221398Y305210D01*
X216319D01*
X213780Y307749D01*
Y310288D01*
X216319Y312827D01*
X223937D01*
X239172Y328324D02*
Y343559D01*
X231555D01*
X229015Y341020D01*
Y335942D01*
X231555Y333402D01*
X239172D01*
X234094D02*
X229015Y328324D01*
X223937D02*
X218859D01*
X221398D01*
Y343559D01*
X223937Y341020D01*
X203624Y328324D02*
Y343559D01*
X211241Y335942D01*
X201084D01*
X239172Y351184D02*
Y366419D01*
X231555D01*
X229015Y363880D01*
Y358801D01*
X231555Y356262D01*
X239172D01*
X234094D02*
X229015Y351184D01*
X223937D02*
X218859D01*
X221398D01*
Y366419D01*
X223937Y363880D01*
X201084Y366419D02*
X206163Y363880D01*
X211241Y358801D01*
Y353723D01*
X208702Y351184D01*
X203624D01*
X201084Y353723D01*
Y356262D01*
X203624Y358801D01*
X211241D01*
X239172Y374298D02*
Y389533D01*
X231555D01*
X229015Y386994D01*
Y381916D01*
X231555Y379376D01*
X239172D01*
X234094D02*
X229015Y374298D01*
X223937D02*
X218859D01*
X221398D01*
Y389533D01*
X223937Y386994D01*
X201084Y389533D02*
X211241D01*
Y381916D01*
X206163Y384455D01*
X203624D01*
X201084Y381916D01*
Y376837D01*
X203624Y374298D01*
X208702D01*
X211241Y376837D01*
X239172Y397158D02*
Y412393D01*
X231555D01*
X229015Y409854D01*
Y404776D01*
X231555Y402236D01*
X239172D01*
X234094D02*
X229015Y397158D01*
X223937D02*
X218859D01*
X221398D01*
Y412393D01*
X223937Y409854D01*
X211241D02*
X208702Y412393D01*
X203624D01*
X201084Y409854D01*
Y407315D01*
X203624Y404776D01*
X201084Y402236D01*
Y399697D01*
X203624Y397158D01*
X208702D01*
X211241Y399697D01*
Y402236D01*
X208702Y404776D01*
X211241Y407315D01*
Y409854D01*
X208702Y404776D02*
X203624D01*
X187815Y85860D02*
X190354Y88399D01*
X195433D01*
X197972Y85860D01*
Y75703D01*
X195433Y73164D01*
X190354D01*
X187815Y75703D01*
X182737Y88399D02*
X172580D01*
Y85860D01*
X182737Y75703D01*
Y73164D01*
X197972Y96405D02*
Y111640D01*
X190354D01*
X187815Y109101D01*
Y104023D01*
X190354Y101483D01*
X197972D01*
X192894D02*
X187815Y96405D01*
X175119D02*
Y111640D01*
X182737Y104023D01*
X172580D01*
X187815Y132342D02*
X190354Y134881D01*
X195433D01*
X197972Y132342D01*
Y122185D01*
X195433Y119646D01*
X190354D01*
X187815Y122185D01*
X182737Y132342D02*
X180198Y134881D01*
X175119D01*
X172580Y132342D01*
Y129803D01*
X175119Y127264D01*
X177659D01*
X175119D01*
X172580Y124724D01*
Y122185D01*
X175119Y119646D01*
X180198D01*
X182737Y122185D01*
X197972Y142887D02*
Y158122D01*
X190354D01*
X187815Y155583D01*
Y150505D01*
X190354Y147965D01*
X197972D01*
X192894D02*
X187815Y142887D01*
X172580Y158122D02*
X182737D01*
Y150505D01*
X177659Y153044D01*
X175119D01*
X172580Y150505D01*
Y145426D01*
X175119Y142887D01*
X180198D01*
X182737Y145426D01*
X187815Y178824D02*
X190354Y181363D01*
X195433D01*
X197972Y178824D01*
Y168667D01*
X195433Y166128D01*
X190354D01*
X187815Y168667D01*
X182737Y178824D02*
X180198Y181363D01*
X175119D01*
X172580Y178824D01*
Y176285D01*
X175119Y173746D01*
X172580Y171206D01*
Y168667D01*
X175119Y166128D01*
X180198D01*
X182737Y168667D01*
Y171206D01*
X180198Y173746D01*
X182737Y176285D01*
Y178824D01*
X180198Y173746D02*
X175119D01*
X117114Y242102D02*
Y257337D01*
X109496D01*
X106957Y254798D01*
Y249720D01*
X109496Y247180D01*
X117114D01*
X112036D02*
X106957Y242102D01*
X101879D02*
X96801D01*
X99340D01*
Y257337D01*
X101879Y254798D01*
X117114Y265216D02*
Y280451D01*
X109496D01*
X106957Y277912D01*
Y272833D01*
X109496Y270294D01*
X117114D01*
X112036D02*
X106957Y265216D01*
X91722D02*
X101879D01*
X91722Y275373D01*
Y277912D01*
X94261Y280451D01*
X99340D01*
X101879Y277912D01*
X117114Y288076D02*
Y303311D01*
X109496D01*
X106957Y300772D01*
Y295693D01*
X109496Y293154D01*
X117114D01*
X112036D02*
X106957Y288076D01*
X101879Y300772D02*
X99340Y303311D01*
X94261D01*
X91722Y300772D01*
Y298233D01*
X94261Y295693D01*
X96801D01*
X94261D01*
X91722Y293154D01*
Y290615D01*
X94261Y288076D01*
X99340D01*
X101879Y290615D01*
X117114Y320080D02*
Y335315D01*
X109496D01*
X106957Y332776D01*
Y327697D01*
X109496Y325158D01*
X117114D01*
X112036D02*
X106957Y320080D01*
X101879D02*
X96801D01*
X99340D01*
Y335315D01*
X101879Y332776D01*
X89183D02*
X86644Y335315D01*
X81566D01*
X79026Y332776D01*
Y322619D01*
X81566Y320080D01*
X86644D01*
X89183Y322619D01*
Y332776D01*
X117114Y343194D02*
Y358429D01*
X109496D01*
X106957Y355890D01*
Y350812D01*
X109496Y348272D01*
X117114D01*
X112036D02*
X106957Y343194D01*
X101879Y345733D02*
X99340Y343194D01*
X94261D01*
X91722Y345733D01*
Y355890D01*
X94261Y358429D01*
X99340D01*
X101879Y355890D01*
Y353351D01*
X99340Y350812D01*
X91722D01*
D47*
X420000Y479994D02*
X413335D01*
X416668D01*
Y460000D01*
X420000D01*
X413335D01*
X390010Y476661D02*
X393342Y479994D01*
X400006D01*
X403339Y476661D01*
Y473329D01*
X400006Y469997D01*
X393342D01*
X390010Y466665D01*
Y463332D01*
X393342Y460000D01*
X400006D01*
X403339Y463332D01*
X383345Y479994D02*
Y460000D01*
X370016D01*
X350023Y479994D02*
X356687Y476661D01*
X363352Y469997D01*
Y463332D01*
X360019Y460000D01*
X353355D01*
X350023Y463332D01*
Y466665D01*
X353355Y469997D01*
X363352D01*
X330029Y460000D02*
X343358D01*
X330029Y473329D01*
Y476661D01*
X333361Y479994D01*
X340026D01*
X343358Y476661D01*
X323364D02*
X320032Y479994D01*
X313368D01*
X310035Y476661D01*
Y473329D01*
X313368Y469997D01*
X316700D01*
X313368D01*
X310035Y466665D01*
Y463332D01*
X313368Y460000D01*
X320032D01*
X323364Y463332D01*
X290042Y479994D02*
X296706Y476661D01*
X303371Y469997D01*
Y463332D01*
X300039Y460000D01*
X293374D01*
X290042Y463332D01*
Y466665D01*
X293374Y469997D01*
X303371D01*
X283377Y460000D02*
Y473329D01*
X276713Y479994D01*
X270048Y473329D01*
Y460000D01*
Y469997D01*
X283377D01*
X243390Y479994D02*
Y460000D01*
X233393D01*
X230061Y463332D01*
Y476661D01*
X233393Y479994D01*
X243390D01*
X210068D02*
X223397D01*
Y460000D01*
X210068D01*
X223397Y469997D02*
X216732D01*
X203403Y460000D02*
Y479994D01*
X196739Y473329D01*
X190074Y479994D01*
Y460000D01*
X173413Y479994D02*
X180077D01*
X183410Y476661D01*
Y463332D01*
X180077Y460000D01*
X173413D01*
X170081Y463332D01*
Y476661D01*
X173413Y479994D01*
X143422D02*
Y466665D01*
X136758Y460000D01*
X130093Y466665D01*
Y479994D01*
X123429Y460000D02*
X116764D01*
X120097D01*
Y479994D01*
X123429Y476661D01*
X106768Y479994D02*
X100103D01*
X103435D01*
Y460000D01*
X106768D01*
X100103D01*
X90106D02*
X83442D01*
X86774D01*
Y479994D01*
X90106Y476661D01*
M02*
