G04*
G04 #@! TF.GenerationSoftware,Altium Limited,Altium Designer,18.0.12 (696)*
G04*
G04 Layer_Physical_Order=3*
G04 Layer_Color=36540*
%FSLAX44Y44*%
%MOMM*%
G71*
G01*
G75*
%ADD10C,0.2000*%
%ADD25C,0.6000*%
%ADD30C,1.0000*%
D10*
X319900Y223200D02*
Y256600D01*
X311000Y265500D02*
X319900Y256600D01*
X272800Y265500D02*
X311000D01*
X303200Y206500D02*
X319900Y223200D01*
X270100Y268200D02*
X272800Y265500D01*
X252500Y268200D02*
X270100D01*
X229600Y291100D02*
X252500Y268200D01*
X244500Y206500D02*
X303200D01*
X229600Y291100D02*
Y305100D01*
X225300Y309400D02*
X229600Y305100D01*
X222300Y309400D02*
X225300D01*
D25*
X104000Y409000D02*
D03*
X385500Y380300D02*
D03*
X256000Y290000D02*
D03*
X214000Y265400D02*
D03*
X219000Y289400D02*
D03*
X386500Y118800D02*
D03*
X207000Y231300D02*
D03*
X222300Y309400D02*
D03*
X230300Y214500D02*
D03*
X195000Y370950D02*
D03*
X190000Y130950D02*
D03*
X135950D02*
D03*
Y169050D02*
D03*
Y370950D02*
D03*
X195500Y310500D02*
D03*
X120000Y250000D02*
D03*
X299500Y230100D02*
D03*
X307500Y195500D02*
D03*
X244500Y206500D02*
D03*
X195500Y182500D02*
D03*
D30*
X256000Y303250D02*
X315350Y362600D01*
X256000Y290000D02*
Y303250D01*
X315350Y362600D02*
X367800D01*
X104000Y409000D02*
X156500D01*
X155200Y408800D02*
X155700Y409300D01*
X179000Y386000D01*
X367800Y362600D02*
X385500Y380300D01*
X140600Y304400D02*
X179600Y265400D01*
X214000D01*
X194600Y289400D02*
X219000D01*
X281100Y248500D02*
X299500Y230100D01*
X224000Y248500D02*
X281100D01*
X220700Y245200D02*
X224000Y248500D01*
X209158Y245200D02*
X220700D01*
X208858Y245500D02*
X209158Y245200D01*
X386500Y118800D02*
Y142200D01*
X343200Y185500D02*
X386500Y142200D01*
X329358Y185500D02*
X343200D01*
X319358Y195500D02*
X329358Y185500D01*
X307500Y195500D02*
X319358D01*
X124400Y245500D02*
X208858D01*
X120000Y249900D02*
X124400Y245500D01*
X120000Y249900D02*
Y250000D01*
X196400Y220700D02*
X207000Y231300D01*
X133300Y220700D02*
X196400D01*
X120500Y207900D02*
X133300Y220700D01*
X215600Y199800D02*
X230300Y214500D01*
X166700Y199800D02*
X215600D01*
X135950Y169050D02*
X166700Y199800D01*
X120500Y146400D02*
Y207900D01*
Y146400D02*
X135950Y130950D01*
X140600Y304400D02*
Y366300D01*
X135950Y370950D02*
X140600Y366300D01*
X195000Y370950D02*
X214200Y351750D01*
Y329200D02*
Y351750D01*
X195500Y310500D02*
X214200Y329200D01*
X179000Y305000D02*
Y386000D01*
Y305000D02*
X194600Y289400D01*
X190000Y130950D02*
X195500Y136450D01*
Y182500D01*
M02*
