G04*
G04 #@! TF.GenerationSoftware,Altium Limited,Altium Designer,18.0.12 (696)*
G04*
G04 Layer_Color=8388736*
%FSLAX44Y44*%
%MOMM*%
G71*
G01*
G75*
%ADD16C,0.3000*%
%ADD17C,0.2500*%
%ADD18R,2.3032X0.8032*%
%ADD19R,4.0532X5.7032*%
%ADD20R,1.1032X2.7032*%
%ADD21R,2.7532X3.9532*%
%ADD22C,4.2032*%
D16*
X30000Y40000D02*
Y50157D01*
X32539D01*
X35078Y47618D01*
Y40000D01*
Y47618D01*
X37617Y50157D01*
X40157Y47618D01*
Y40000D01*
X45235D02*
X50313D01*
X47774D01*
Y50157D01*
X45235D01*
X68088D02*
X60470D01*
X57931Y47618D01*
Y42539D01*
X60470Y40000D01*
X68088D01*
X73166Y50157D02*
Y40000D01*
Y45078D01*
X75705Y47618D01*
X78244Y50157D01*
X80784D01*
X90940Y40000D02*
X96019D01*
X98558Y42539D01*
Y47618D01*
X96019Y50157D01*
X90940D01*
X88401Y47618D01*
Y42539D01*
X90940Y40000D01*
X113793Y55235D02*
X103636D01*
Y47618D01*
X108715D01*
X103636D01*
Y40000D01*
X121410Y50157D02*
X126489D01*
X129028Y47618D01*
Y40000D01*
X121410D01*
X118871Y42539D01*
X121410Y45078D01*
X129028D01*
X134106Y55235D02*
Y40000D01*
X141724D01*
X144263Y42539D01*
Y45078D01*
Y47618D01*
X141724Y50157D01*
X134106D01*
X149341D02*
Y40000D01*
Y45078D01*
X151881Y47618D01*
X154420Y50157D01*
X156959D01*
X164576Y40000D02*
X169655D01*
X167116D01*
Y50157D01*
X164576D01*
X187429D02*
X179811D01*
X177272Y47618D01*
Y42539D01*
X179811Y40000D01*
X187429D01*
X195047Y50157D02*
X200125D01*
X202664Y47618D01*
Y40000D01*
X195047D01*
X192507Y42539D01*
X195047Y45078D01*
X202664D01*
X210282Y52696D02*
Y50157D01*
X207743D01*
X212821D01*
X210282D01*
Y42539D01*
X212821Y40000D01*
X228056D02*
X222978D01*
X220438Y42539D01*
Y47618D01*
X222978Y50157D01*
X228056D01*
X230595Y47618D01*
Y45078D01*
X220438D01*
D17*
X37997Y29997D02*
X35998Y31996D01*
X31999D01*
X30000Y29997D01*
Y27997D01*
X31999Y25998D01*
X35998D01*
X37997Y23999D01*
Y21999D01*
X35998Y20000D01*
X31999D01*
X30000Y21999D01*
X49994Y27997D02*
X43995D01*
X41996Y25998D01*
Y21999D01*
X43995Y20000D01*
X49994D01*
X53992Y31996D02*
Y20000D01*
Y25998D01*
X55992Y27997D01*
X59990D01*
X61990Y25998D01*
Y20000D01*
X71986D02*
X67988D01*
X65988Y21999D01*
Y25998D01*
X67988Y27997D01*
X71986D01*
X73986Y25998D01*
Y23999D01*
X65988D01*
X77984Y20000D02*
Y27997D01*
X79984D01*
X81983Y25998D01*
Y20000D01*
Y25998D01*
X83982Y27997D01*
X85982Y25998D01*
Y20000D01*
X91980Y27997D02*
X95979D01*
X97978Y25998D01*
Y20000D01*
X91980D01*
X89981Y21999D01*
X91980Y23999D01*
X97978D01*
X103976Y29997D02*
Y27997D01*
X101977D01*
X105975D01*
X103976D01*
Y21999D01*
X105975Y20000D01*
X111973D02*
X115972D01*
X113973D01*
Y27997D01*
X111973D01*
X129968D02*
X123970D01*
X121970Y25998D01*
Y21999D01*
X123970Y20000D01*
X129968D01*
X153960D02*
X151960Y21999D01*
X149961Y20000D01*
X147962D01*
X145962Y21999D01*
Y23999D01*
X147962Y25998D01*
X145962Y27997D01*
Y29997D01*
X147962Y31996D01*
X149961D01*
X151960Y29997D01*
Y27997D01*
X149961Y25998D01*
X151960Y23999D01*
Y21999D01*
X153960Y25998D02*
X151960Y23999D01*
X147962Y25998D02*
X149961D01*
X169955Y20000D02*
Y31996D01*
X175953D01*
X177952Y29997D01*
Y25998D01*
X175953Y23999D01*
X169955D01*
X189948Y29997D02*
X187949Y31996D01*
X183950D01*
X181951Y29997D01*
Y21999D01*
X183950Y20000D01*
X187949D01*
X189948Y21999D01*
X193947Y31996D02*
Y20000D01*
X199945D01*
X201944Y21999D01*
Y23999D01*
X199945Y25998D01*
X193947D01*
X199945D01*
X201944Y27997D01*
Y29997D01*
X199945Y31996D01*
X193947D01*
X217939D02*
Y20000D01*
X223937D01*
X225937Y21999D01*
Y29997D01*
X223937Y31996D01*
X217939D01*
X235933Y20000D02*
X231935D01*
X229935Y21999D01*
Y25998D01*
X231935Y27997D01*
X235933D01*
X237933Y25998D01*
Y23999D01*
X229935D01*
X241931Y20000D02*
X247929D01*
X249929Y21999D01*
X247929Y23999D01*
X243931D01*
X241931Y25998D01*
X243931Y27997D01*
X249929D01*
X253927Y20000D02*
X257926D01*
X255927D01*
Y27997D01*
X253927D01*
X267923Y16001D02*
X269922D01*
X271922Y18001D01*
Y27997D01*
X265924D01*
X263924Y25998D01*
Y21999D01*
X265924Y20000D01*
X271922D01*
X275920D02*
Y27997D01*
X281919D01*
X283918Y25998D01*
Y20000D01*
X307910Y29997D02*
X305911Y31996D01*
X301912D01*
X299913Y29997D01*
Y21999D01*
X301912Y20000D01*
X305911D01*
X307910Y21999D01*
X313908Y20000D02*
X317907D01*
X319906Y21999D01*
Y25998D01*
X317907Y27997D01*
X313908D01*
X311909Y25998D01*
Y21999D01*
X313908Y20000D01*
X323905Y27997D02*
Y21999D01*
X325904Y20000D01*
X331902D01*
Y27997D01*
X335901D02*
Y20000D01*
Y23999D01*
X337900Y25998D01*
X339900Y27997D01*
X341899D01*
X347897Y20000D02*
X353895D01*
X355895Y21999D01*
X353895Y23999D01*
X349897D01*
X347897Y25998D01*
X349897Y27997D01*
X355895D01*
X365891Y20000D02*
X361893D01*
X359893Y21999D01*
Y25998D01*
X361893Y27997D01*
X365891D01*
X367891Y25998D01*
Y23999D01*
X359893D01*
X371889Y20000D02*
X377887D01*
X379887Y21999D01*
X377887Y23999D01*
X373889D01*
X371889Y25998D01*
X373889Y27997D01*
X379887D01*
D18*
X118000Y169050D02*
D03*
Y156350D02*
D03*
Y143650D02*
D03*
Y130950D02*
D03*
X176000Y169050D02*
D03*
Y156350D02*
D03*
Y143650D02*
D03*
Y130950D02*
D03*
Y370950D02*
D03*
Y383650D02*
D03*
Y396350D02*
D03*
Y409050D02*
D03*
X118000Y370950D02*
D03*
Y383650D02*
D03*
Y396350D02*
D03*
Y409050D02*
D03*
D19*
X322750Y130000D02*
D03*
X223250D02*
D03*
X223250Y370000D02*
D03*
X322750D02*
D03*
D20*
X181500Y200000D02*
D03*
X150500D02*
D03*
Y440000D02*
D03*
X181500D02*
D03*
D21*
X386000Y143000D02*
D03*
Y197000D02*
D03*
Y357000D02*
D03*
Y303000D02*
D03*
D22*
X50000Y300000D02*
D03*
Y200000D02*
D03*
X450000Y140000D02*
D03*
Y360000D02*
D03*
Y200000D02*
D03*
Y300000D02*
D03*
M02*
