M48
;Layer_Color=9474304
;FILE_FORMAT=4:4
METRIC,LZ
;TYPE=PLATED
T1F00S00C0.3000
T2F00S00C1.5000
%
T01
X00095Y00085
X0011
X00105Y00095
X0011Y00105
X00105Y00115
X00085
X00095Y00125
Y00145
X00104
Y00155
X00085
Y00135
X00095Y00105
X00085Y00095
X0013595Y0013095
Y0016905
X0014Y00191
Y002
Y00209
X00173Y002354
X0018
X00207Y002313
X002133Y002552
X00214Y002654
X00219Y002894
X002223Y003094
X001955Y003105
X002445Y003175
X00244Y00298
X00256Y0029
X002609Y002608
X002397
Y002385
X002609
X00277Y00222
X002995Y002301
X003099Y002532
X00329Y00246
Y00239
X003295Y00262
Y00269
X0033Y00294
Y00301
X00324Y00326
X00317
X003015Y003111
X002805Y002727
X002895Y003591
X002734Y003715
X00287Y00406
X00192Y00431
Y0044
Y00449
X00195Y0037095
X0013595
X0012Y00351
X0011Y00345
X00105Y00335
X0011Y00325
X0012Y00328
X00095Y00325
X00085Y00335
X00095Y00345
X00085Y00355
X00105
X00095Y00365
X00085Y00375
X00095Y00385
X00104
Y00395
Y00409
X00085Y00395
X0012Y00296
X00115Y00285
X0012Y0025
X001955Y001825
X00227Y00163
X0025Y00163
X00274Y00163
X003075Y001955
X003335Y001955
X002445Y002065
X002303Y002145
X0019Y0013095
X003865Y001188
X00403Y00185
Y00209
X00394Y00221
X00377
X00369Y0021
Y00185
X0034Y00214
Y00221
X00378Y00279
X00395
X00403Y0029
Y00315
X00369
Y00291
X003855Y003803
T02
X0005Y002
Y003
X0045
Y0036
Y002
Y0014
M30
