G04*
G04 #@! TF.GenerationSoftware,Altium Limited,Altium Designer,18.0.12 (696)*
G04*
G04 Layer_Physical_Order=1*
G04 Layer_Color=255*
%FSLAX25Y25*%
%MOIN*%
G70*
G01*
G75*
%ADD10C,0.00787*%
%ADD11C,0.01000*%
%ADD12R,0.08268X0.02362*%
%ADD13R,0.15158X0.21654*%
%ADD14R,0.03543X0.09843*%
%ADD15R,0.10039X0.14764*%
%ADD23C,0.01968*%
%ADD24C,0.15748*%
%ADD25C,0.02362*%
G36*
X77165Y168110D02*
X77165Y168110D01*
X69291D01*
Y178347D01*
X77165D01*
Y168110D01*
D02*
G37*
G36*
X64961Y183071D02*
X64961Y168110D01*
X67323Y165748D01*
X73779D01*
Y159449D01*
X57087Y159449D01*
X51181Y165354D01*
X33071Y165354D01*
X29921Y162205D01*
X29921Y127953D01*
X32756Y125118D01*
X94156Y125118D01*
X94253Y125000D01*
X94406Y124232D01*
X94841Y123581D01*
X95492Y123146D01*
X96260Y122993D01*
X97028Y123146D01*
X97679Y123581D01*
X98114Y124232D01*
X98267Y125000D01*
X98364Y125118D01*
X117835Y125118D01*
X117933Y124335D01*
X117282Y123899D01*
X116847Y123248D01*
X116694Y122480D01*
X116847Y121712D01*
X117282Y121061D01*
X117933Y120626D01*
X118701Y120473D01*
X119469Y120626D01*
X120120Y121061D01*
X120555Y121712D01*
X120708Y122480D01*
X120555Y123248D01*
X120120Y123899D01*
X119469Y124335D01*
X119566Y125118D01*
X120945D01*
X127953Y118110D01*
Y115942D01*
X127914Y115748D01*
X127953Y115554D01*
Y106797D01*
X127870Y106674D01*
X127717Y105905D01*
X127870Y105137D01*
X127953Y105014D01*
Y104041D01*
X127870Y103918D01*
X127717Y103150D01*
X127870Y102382D01*
X127953Y102258D01*
Y98037D01*
X127673Y97619D01*
X127521Y96850D01*
X127197Y96457D01*
X114173D01*
X114173Y108268D01*
X111417Y111024D01*
X30607D01*
X29134Y109824D01*
X29134Y105905D01*
X30709Y104331D01*
X68898Y104331D01*
X76772Y96457D01*
Y73818D01*
X76200Y73705D01*
X75549Y73270D01*
X75114Y72619D01*
X74961Y71850D01*
X75114Y71082D01*
X75549Y70431D01*
X76200Y69996D01*
X76772Y69883D01*
Y64961D01*
X62992D01*
Y84646D01*
X59055Y88583D01*
X11811Y88583D01*
X7874Y92520D01*
Y183071D01*
X11811Y187008D01*
X61024Y187008D01*
X64961Y183071D01*
D02*
G37*
G36*
X95906Y134331D02*
X95873Y134252D01*
X75906D01*
X65000Y145158D01*
X65039Y145197D01*
Y157307D01*
X65079Y157323D01*
X95906D01*
Y134331D01*
D02*
G37*
G36*
X141457Y151260D02*
X188898Y151260D01*
X188898Y132520D01*
X117677Y132520D01*
Y157298D01*
X117874Y157717D01*
X135000D01*
X141457Y151260D01*
D02*
G37*
G36*
X51181Y149606D02*
X42913Y149606D01*
X41535Y148228D01*
Y148012D01*
X41535D01*
Y146785D01*
X41535Y143898D01*
X42520Y142913D01*
X45236Y142913D01*
X45236Y126535D01*
X33504Y126535D01*
X31496Y128543D01*
X31496Y155512D01*
X33465Y157480D01*
X51181D01*
Y149606D01*
D02*
G37*
G36*
X160236Y108268D02*
X143307D01*
Y127165D01*
X160236D01*
Y108268D01*
D02*
G37*
G36*
X61417Y73622D02*
X53543D01*
Y83858D01*
X53543Y83858D01*
X61417D01*
Y73622D01*
D02*
G37*
G36*
X160630Y69685D02*
X143701D01*
Y88583D01*
X160630D01*
Y69685D01*
D02*
G37*
G36*
X96024Y40294D02*
X95906Y39843D01*
X74567D01*
X64842Y49567D01*
Y62835D01*
X64882Y62953D01*
X64921Y62992D01*
X87792D01*
X87951Y62754D01*
X88602Y62319D01*
X89370Y62166D01*
X90138Y62319D01*
X90789Y62754D01*
X90948Y62992D01*
X96024D01*
Y40294D01*
D02*
G37*
G36*
X188898Y45591D02*
X141457Y45590D01*
X135000Y39134D01*
X117874D01*
X117677Y39552D01*
Y64331D01*
X188898Y64331D01*
X188898Y45591D01*
D02*
G37*
G36*
X51181Y55118D02*
X42913Y55118D01*
X41535Y53740D01*
Y53524D01*
X41535D01*
Y52297D01*
X41535Y49409D01*
X42520Y48425D01*
X45236Y48425D01*
X45236Y32047D01*
X33504Y32047D01*
X31496Y34055D01*
X31496Y61024D01*
X33465Y62992D01*
X51181D01*
Y55118D01*
D02*
G37*
%LPC*%
G36*
X76968Y124251D02*
X76200Y124098D01*
X75549Y123663D01*
X75114Y123012D01*
X74961Y122244D01*
X75114Y121476D01*
X75549Y120825D01*
X76200Y120390D01*
X76968Y120237D01*
X77737Y120390D01*
X78388Y120825D01*
X78823Y121476D01*
X78976Y122244D01*
X78823Y123012D01*
X78388Y123663D01*
X77737Y124098D01*
X76968Y124251D01*
D02*
G37*
G36*
X87520Y123818D02*
X86752Y123665D01*
X86101Y123230D01*
X85665Y122579D01*
X85513Y121811D01*
X85665Y121043D01*
X86101Y120392D01*
X86752Y119957D01*
X87520Y119804D01*
X88288Y119957D01*
X88939Y120392D01*
X89374Y121043D01*
X89527Y121811D01*
X89374Y122579D01*
X88939Y123230D01*
X88288Y123665D01*
X87520Y123818D01*
D02*
G37*
G36*
X96063Y119330D02*
X95295Y119177D01*
X94644Y118742D01*
X94209Y118091D01*
X94056Y117323D01*
X94209Y116555D01*
X94644Y115904D01*
X95295Y115469D01*
X96063Y115316D01*
X96831Y115469D01*
X97482Y115904D01*
X97917Y116555D01*
X98070Y117323D01*
X97917Y118091D01*
X97482Y118742D01*
X96831Y119177D01*
X96063Y119330D01*
D02*
G37*
G36*
X47244Y118543D02*
X46476Y118390D01*
X45825Y117955D01*
X45390Y117304D01*
X45237Y116535D01*
X45390Y115767D01*
X45825Y115116D01*
X46476Y114681D01*
X47244Y114528D01*
X48012Y114681D01*
X48663Y115116D01*
X49098Y115767D01*
X49251Y116535D01*
X49098Y117304D01*
X48663Y117955D01*
X48012Y118390D01*
X47244Y118543D01*
D02*
G37*
G36*
X100787Y116180D02*
X100019Y116027D01*
X99368Y115592D01*
X98933Y114941D01*
X98780Y114173D01*
X98933Y113405D01*
X99368Y112754D01*
X100019Y112319D01*
X100787Y112166D01*
X101556Y112319D01*
X102207Y112754D01*
X102642Y113405D01*
X102795Y114173D01*
X102642Y114941D01*
X102207Y115592D01*
X101556Y116027D01*
X100787Y116180D01*
D02*
G37*
G36*
X86221Y115944D02*
X85452Y115791D01*
X84801Y115356D01*
X84366Y114705D01*
X84213Y113937D01*
X84366Y113169D01*
X84801Y112518D01*
X85452Y112083D01*
X86221Y111930D01*
X86989Y112083D01*
X87640Y112518D01*
X88075Y113169D01*
X88227Y113937D01*
X88075Y114705D01*
X87640Y115356D01*
X86989Y115791D01*
X86221Y115944D01*
D02*
G37*
G36*
X47244Y100432D02*
X46476Y100279D01*
X45825Y99844D01*
X45390Y99193D01*
X45237Y98425D01*
X45390Y97657D01*
X45825Y97006D01*
X46476Y96571D01*
X47244Y96418D01*
X48012Y96571D01*
X48663Y97006D01*
X49098Y97657D01*
X49251Y98425D01*
X49098Y99193D01*
X48663Y99844D01*
X48012Y100279D01*
X47244Y100432D01*
D02*
G37*
G36*
X70866Y94684D02*
X70098Y94531D01*
X69488Y94124D01*
X68878Y94531D01*
X68110Y94684D01*
X67342Y94531D01*
X66691Y94096D01*
X66256Y93445D01*
X66103Y92677D01*
X66256Y91909D01*
X66691Y91258D01*
X67342Y90823D01*
X68110Y90670D01*
X68878Y90823D01*
X69488Y91230D01*
X70098Y90823D01*
X70866Y90670D01*
X71634Y90823D01*
X72285Y91258D01*
X72720Y91909D01*
X72873Y92677D01*
X72720Y93445D01*
X72285Y94096D01*
X71634Y94531D01*
X70866Y94684D01*
D02*
G37*
%LPD*%
D10*
X14960Y11810D02*
X14173Y12597D01*
X12598D01*
X11811Y11810D01*
Y11023D01*
X12598Y10236D01*
X14173D01*
X14960Y9448D01*
Y8661D01*
X14173Y7874D01*
X12598D01*
X11811Y8661D01*
X19682Y11023D02*
X17321D01*
X16534Y10236D01*
Y8661D01*
X17321Y7874D01*
X19682D01*
X21257Y12597D02*
Y7874D01*
Y10236D01*
X22044Y11023D01*
X23618D01*
X24405Y10236D01*
Y7874D01*
X28341D02*
X26767D01*
X25980Y8661D01*
Y10236D01*
X26767Y11023D01*
X28341D01*
X29128Y10236D01*
Y9448D01*
X25980D01*
X30702Y7874D02*
Y11023D01*
X31490D01*
X32277Y10236D01*
Y7874D01*
Y10236D01*
X33064Y11023D01*
X33851Y10236D01*
Y7874D01*
X36213Y11023D02*
X37787D01*
X38574Y10236D01*
Y7874D01*
X36213D01*
X35425Y8661D01*
X36213Y9448D01*
X38574D01*
X40935Y11810D02*
Y11023D01*
X40148D01*
X41723D01*
X40935D01*
Y8661D01*
X41723Y7874D01*
X44084D02*
X45658D01*
X44871D01*
Y11023D01*
X44084D01*
X51168D02*
X48807D01*
X48020Y10236D01*
Y8661D01*
X48807Y7874D01*
X51168D01*
X60614D02*
X59827Y8661D01*
X59040Y7874D01*
X58253D01*
X57465Y8661D01*
Y9448D01*
X58253Y10236D01*
X57465Y11023D01*
Y11810D01*
X58253Y12597D01*
X59040D01*
X59827Y11810D01*
Y11023D01*
X59040Y10236D01*
X59827Y9448D01*
Y8661D01*
X60614Y10236D02*
X59827Y9448D01*
X58253Y10236D02*
X59040D01*
X66911Y7874D02*
Y12597D01*
X69273D01*
X70060Y11810D01*
Y10236D01*
X69273Y9448D01*
X66911D01*
X74783Y11810D02*
X73996Y12597D01*
X72421D01*
X71634Y11810D01*
Y8661D01*
X72421Y7874D01*
X73996D01*
X74783Y8661D01*
X76357Y12597D02*
Y7874D01*
X78719D01*
X79506Y8661D01*
Y9448D01*
X78719Y10236D01*
X76357D01*
X78719D01*
X79506Y11023D01*
Y11810D01*
X78719Y12597D01*
X76357D01*
X85803D02*
Y7874D01*
X88164D01*
X88951Y8661D01*
Y11810D01*
X88164Y12597D01*
X85803D01*
X92887Y7874D02*
X91313D01*
X90526Y8661D01*
Y10236D01*
X91313Y11023D01*
X92887D01*
X93674Y10236D01*
Y9448D01*
X90526D01*
X95249Y7874D02*
X97610D01*
X98397Y8661D01*
X97610Y9448D01*
X96036D01*
X95249Y10236D01*
X96036Y11023D01*
X98397D01*
X99971Y7874D02*
X101546D01*
X100759D01*
Y11023D01*
X99971D01*
X105482Y6300D02*
X106269D01*
X107056Y7087D01*
Y11023D01*
X104694D01*
X103907Y10236D01*
Y8661D01*
X104694Y7874D01*
X107056D01*
X108630D02*
Y11023D01*
X110992D01*
X111779Y10236D01*
Y7874D01*
X121224Y11810D02*
X120437Y12597D01*
X118863D01*
X118076Y11810D01*
Y8661D01*
X118863Y7874D01*
X120437D01*
X121224Y8661D01*
X123586Y7874D02*
X125160D01*
X125947Y8661D01*
Y10236D01*
X125160Y11023D01*
X123586D01*
X122799Y10236D01*
Y8661D01*
X123586Y7874D01*
X127522Y11023D02*
Y8661D01*
X128309Y7874D01*
X130670D01*
Y11023D01*
X132245D02*
Y7874D01*
Y9448D01*
X133032Y10236D01*
X133819Y11023D01*
X134606D01*
X136967Y7874D02*
X139329D01*
X140116Y8661D01*
X139329Y9448D01*
X137754D01*
X136967Y10236D01*
X137754Y11023D01*
X140116D01*
X144052Y7874D02*
X142477D01*
X141690Y8661D01*
Y10236D01*
X142477Y11023D01*
X144052D01*
X144839Y10236D01*
Y9448D01*
X141690D01*
X146413Y7874D02*
X148775D01*
X149562Y8661D01*
X148775Y9448D01*
X147200D01*
X146413Y10236D01*
X147200Y11023D01*
X149562D01*
D11*
X11811Y15748D02*
Y19747D01*
X12811D01*
X13810Y18747D01*
Y15748D01*
Y18747D01*
X14810Y19747D01*
X15810Y18747D01*
Y15748D01*
X17809D02*
X19808D01*
X18809D01*
Y19747D01*
X17809D01*
X26806D02*
X23807D01*
X22807Y18747D01*
Y16748D01*
X23807Y15748D01*
X26806D01*
X28806Y19747D02*
Y15748D01*
Y17747D01*
X29805Y18747D01*
X30805Y19747D01*
X31805D01*
X35803Y15748D02*
X37803D01*
X38802Y16748D01*
Y18747D01*
X37803Y19747D01*
X35803D01*
X34804Y18747D01*
Y16748D01*
X35803Y15748D01*
X44800Y21746D02*
X40802D01*
Y18747D01*
X42801D01*
X40802D01*
Y15748D01*
X47799Y19747D02*
X49799D01*
X50798Y18747D01*
Y15748D01*
X47799D01*
X46800Y16748D01*
X47799Y17747D01*
X50798D01*
X52798Y21746D02*
Y15748D01*
X55797D01*
X56796Y16748D01*
Y17747D01*
Y18747D01*
X55797Y19747D01*
X52798D01*
X58796D02*
Y15748D01*
Y17747D01*
X59795Y18747D01*
X60795Y19747D01*
X61795D01*
X64794Y15748D02*
X66793D01*
X65794D01*
Y19747D01*
X64794D01*
X73791D02*
X70792D01*
X69792Y18747D01*
Y16748D01*
X70792Y15748D01*
X73791D01*
X76790Y19747D02*
X78789D01*
X79789Y18747D01*
Y15748D01*
X76790D01*
X75790Y16748D01*
X76790Y17747D01*
X79789D01*
X82788Y20746D02*
Y19747D01*
X81788D01*
X83788D01*
X82788D01*
Y16748D01*
X83788Y15748D01*
X89786D02*
X87786D01*
X86787Y16748D01*
Y18747D01*
X87786Y19747D01*
X89786D01*
X90785Y18747D01*
Y17747D01*
X86787D01*
D12*
X46457Y66555D02*
D03*
Y61555D02*
D03*
Y56555D02*
D03*
Y51555D02*
D03*
X69291Y66555D02*
D03*
Y61555D02*
D03*
Y56555D02*
D03*
Y51555D02*
D03*
Y146043D02*
D03*
Y151043D02*
D03*
Y156043D02*
D03*
Y161043D02*
D03*
X46457Y146043D02*
D03*
Y151043D02*
D03*
Y156043D02*
D03*
Y161043D02*
D03*
D13*
X127067Y51181D02*
D03*
X87894D02*
D03*
X87894Y145669D02*
D03*
X127067D02*
D03*
D14*
X71457Y78740D02*
D03*
X59252D02*
D03*
Y173228D02*
D03*
X71457D02*
D03*
D15*
X151969Y56299D02*
D03*
Y77559D02*
D03*
Y140551D02*
D03*
Y119291D02*
D03*
D23*
X40945Y161024D02*
X48142D01*
X47630Y160945D02*
X47827Y161142D01*
X47925Y161043D01*
Y51555D02*
X53524D01*
X47925Y66555D02*
X53524D01*
X47925Y146043D02*
X53524D01*
D24*
X19685Y118110D02*
D03*
Y78740D02*
D03*
X177165Y55118D02*
D03*
Y141732D02*
D03*
Y78740D02*
D03*
Y118110D02*
D03*
D25*
X40945Y161024D02*
D03*
X151772Y149724D02*
D03*
X40945Y61024D02*
D03*
Y57087D02*
D03*
X37402D02*
D03*
X33465Y61024D02*
D03*
Y53150D02*
D03*
X37402Y49213D02*
D03*
X41339Y45276D02*
D03*
X33465D02*
D03*
X37402Y41339D02*
D03*
X41339Y37402D02*
D03*
X33465D02*
D03*
X37402Y33465D02*
D03*
X43307D02*
D03*
Y41339D02*
D03*
Y135827D02*
D03*
Y127953D02*
D03*
X37402D02*
D03*
X33465Y131890D02*
D03*
X41339D02*
D03*
X37402Y135827D02*
D03*
X33465Y139764D02*
D03*
X41339D02*
D03*
X37402Y143701D02*
D03*
X33465Y147638D02*
D03*
Y155512D02*
D03*
X37402Y151575D02*
D03*
X68110Y92677D02*
D03*
X70866D02*
D03*
X133858Y87008D02*
D03*
Y84252D02*
D03*
X129528Y96850D02*
D03*
Y94095D02*
D03*
X129724Y105905D02*
D03*
Y103150D02*
D03*
X129921Y115748D02*
D03*
X127559Y128347D02*
D03*
X148425Y87008D02*
D03*
X145276Y72835D02*
D03*
Y82677D02*
D03*
X155118Y87008D02*
D03*
X158661Y82284D02*
D03*
Y72835D02*
D03*
X145276Y124016D02*
D03*
Y114567D02*
D03*
X148819Y109843D02*
D03*
X158661Y114173D02*
D03*
Y124016D02*
D03*
X55118Y78740D02*
D03*
Y75197D02*
D03*
Y82284D02*
D03*
X75590Y169685D02*
D03*
Y176772D02*
D03*
X100787Y114173D02*
D03*
X84252Y104488D02*
D03*
X86221Y113937D02*
D03*
X96063Y117323D02*
D03*
X45276Y112205D02*
D03*
X110433Y107362D02*
D03*
X113976Y141378D02*
D03*
X107638Y146260D02*
D03*
X152165Y46772D02*
D03*
X122008Y99685D02*
D03*
X81496Y91063D02*
D03*
X94370Y102677D02*
D03*
X87520Y121811D02*
D03*
X90669Y84449D02*
D03*
X76772Y146043D02*
D03*
X74803Y51555D02*
D03*
X53524D02*
D03*
Y66555D02*
D03*
Y146043D02*
D03*
X155512Y109843D02*
D03*
X75590Y173228D02*
D03*
X40945Y151575D02*
D03*
Y155512D02*
D03*
X94370Y93898D02*
D03*
X102717D02*
D03*
Y102677D02*
D03*
X112992Y159843D02*
D03*
X96260Y125000D02*
D03*
X124803Y128347D02*
D03*
X129921Y118504D02*
D03*
X131299Y76968D02*
D03*
X98425Y64173D02*
D03*
X118701Y122480D02*
D03*
X107874Y64173D02*
D03*
X89370D02*
D03*
X47244Y116535D02*
D03*
X47244Y129134D02*
D03*
Y138189D02*
D03*
X76968Y122244D02*
D03*
X47244Y98425D02*
D03*
X117913Y90591D02*
D03*
X109055Y87402D02*
D03*
X121063Y76968D02*
D03*
X96260Y81299D02*
D03*
X76968Y71850D02*
D03*
X83976Y100472D02*
D03*
M02*
