G04*
G04 #@! TF.GenerationSoftware,Altium Limited,Altium Designer,18.0.12 (696)*
G04*
G04 Layer_Physical_Order=6*
G04 Layer_Color=16711680*
%FSLAX25Y25*%
%MOIN*%
G70*
G01*
G75*
%ADD10C,0.00787*%
%ADD23C,0.01968*%
%ADD24C,0.15748*%
%ADD25C,0.02362*%
%ADD31R,0.12992X0.12992*%
%ADD32R,0.02362X0.00906*%
%ADD33R,0.00906X0.02362*%
%ADD34R,0.05118X0.02756*%
%ADD35R,0.03543X0.06299*%
%ADD36R,0.03543X0.05118*%
%ADD37R,0.02756X0.05118*%
%ADD38C,0.03543*%
%ADD39C,0.02756*%
G36*
X129134Y135433D02*
Y126772D01*
X123228Y126772D01*
Y135433D01*
X129134Y135433D01*
D02*
G37*
G36*
X131496Y114393D02*
X124016D01*
Y120079D01*
X131496D01*
Y114393D01*
D02*
G37*
G36*
X131299Y101575D02*
X123819D01*
Y107252D01*
X123828Y107261D01*
X131299D01*
Y101575D01*
D02*
G37*
G36*
X131102Y92520D02*
X123622D01*
Y98425D01*
X131102D01*
Y92520D01*
D02*
G37*
G36*
X72441Y91142D02*
X68110D01*
Y91102D01*
X66536D01*
Y99375D01*
X72441D01*
Y91142D01*
D02*
G37*
G36*
X135433Y82284D02*
X127953D01*
Y88976D01*
X135433D01*
Y82284D01*
D02*
G37*
D10*
X88976Y88976D02*
X91536D01*
X84021Y87795D02*
X87761Y91536D01*
X88976D01*
X132126Y141732D02*
X135709Y138150D01*
Y116535D02*
Y138150D01*
X132362Y113189D02*
X135709Y116535D01*
X85158Y97638D02*
X88779D01*
X83976Y98819D02*
X85158Y97638D01*
X88779D02*
X88976Y97441D01*
X102953Y112227D02*
X103150Y112424D01*
X101378Y107874D02*
Y113583D01*
X100787Y114173D02*
X101378Y113583D01*
X103150Y112424D02*
Y115152D01*
X102953Y115348D02*
Y117050D01*
Y115348D02*
X103150Y115152D01*
X101575Y117520D02*
X102044Y117050D01*
X102953D01*
X81856Y106850D02*
X85230D01*
X86766Y105315D01*
X88976D01*
X80911Y105905D02*
X81856Y106850D01*
X84252Y104488D02*
X85394Y103347D01*
X77756Y105905D02*
X80911D01*
X86221Y113937D02*
X88779D01*
X90473Y114663D02*
X90495D01*
X95473Y109686D01*
Y107874D02*
Y109686D01*
X90669Y112048D02*
X92477Y110239D01*
X90669Y112048D02*
X90669D01*
X88779Y113937D02*
X90669Y112048D01*
X92520Y114882D02*
X97441Y109961D01*
Y107874D02*
Y109961D01*
X93504Y107874D02*
Y109210D01*
X92477Y110236D02*
X93504Y109210D01*
X92477Y110236D02*
Y110239D01*
X92520Y114882D02*
Y129527D01*
X96063Y114280D02*
X99410Y110933D01*
Y107874D02*
Y110933D01*
X83858Y138189D02*
X92520Y129527D01*
X102953Y109694D02*
Y112227D01*
X96063Y114280D02*
Y117323D01*
X95799D02*
X96063D01*
X105315Y107874D02*
Y113819D01*
X103307Y107913D02*
Y109339D01*
X102953Y109694D02*
X103307Y109339D01*
X108071Y97638D02*
X113259D01*
X107874Y97441D02*
X108071Y97638D01*
X113268Y97629D02*
X113268D01*
X113259Y97638D02*
X113268Y97629D01*
X113268D02*
X114443Y98805D01*
X107874Y95473D02*
X112362D01*
X114443Y98805D02*
X114750D01*
X109646Y103347D02*
X110433Y104134D01*
X107874Y103347D02*
X109646D01*
X110433Y104134D02*
Y107362D01*
X115551Y107615D02*
X116243Y108307D01*
X115551Y103347D02*
Y107615D01*
X111614Y99410D02*
X115551Y103347D01*
X116251Y108307D02*
X120866Y112922D01*
X116243Y108307D02*
X116251D01*
X120866Y112922D02*
Y112992D01*
X110039Y101378D02*
X112992Y104331D01*
X107874Y99410D02*
X111614D01*
X120866Y112992D02*
X121063Y113189D01*
X125000Y141732D02*
X132126D01*
X107874Y105315D02*
Y108937D01*
Y101378D02*
X110039D01*
X121063Y113189D02*
X132362D01*
X107717Y84921D02*
X108150Y84488D01*
X105368Y84921D02*
X107717D01*
X103347Y86943D02*
X105368Y84921D01*
X103347Y86943D02*
Y88976D01*
X84724Y95473D02*
X88976D01*
X83976Y98819D02*
Y100472D01*
X107874Y95473D02*
X107874Y95472D01*
X95473Y85630D02*
Y88976D01*
X89370Y79528D02*
X95473Y85630D01*
X101378Y85551D02*
X102441Y84488D01*
X101378Y85551D02*
Y88976D01*
X101339Y88937D02*
X101378Y88976D01*
X99410Y80512D02*
Y88976D01*
X98425Y79528D02*
X99410Y80512D01*
X98425Y76968D02*
Y79528D01*
X90669Y84606D02*
X91063Y84213D01*
X81614Y91063D02*
X83138Y92587D01*
X81496Y91063D02*
X81614D01*
X77756Y87795D02*
X84021D01*
X95473Y101378D02*
X97441Y99410D01*
X98425Y98425D01*
X88976Y99410D02*
X97441D01*
X88976Y101378D02*
X95473D01*
X85394Y103347D02*
X88976D01*
X86637Y92638D02*
X87503Y93504D01*
X83189Y92638D02*
X86637D01*
X87503Y93504D02*
X88976D01*
X70276Y83701D02*
Y87795D01*
X69488Y82913D02*
X70276Y83701D01*
X69488Y78740D02*
Y82913D01*
X88976Y103347D02*
X88976Y103347D01*
X70276Y105905D02*
Y110669D01*
X69488Y111457D02*
X70276Y110669D01*
X69488Y111457D02*
Y115354D01*
X89724Y107874D02*
X91536D01*
X101378D02*
X101417Y107913D01*
X103307D02*
X103347Y107874D01*
X83138Y92587D02*
X83189Y92638D01*
X90473Y114663D02*
Y119961D01*
X80315Y129134D02*
X87520Y121929D01*
Y121811D02*
X88622D01*
X90473Y119961D01*
X87520Y121811D02*
Y121929D01*
X60039Y138189D02*
X83858D01*
X93504Y86654D02*
Y88976D01*
X91063Y84213D02*
X93504Y86654D01*
X90669Y84449D02*
Y84606D01*
X60039Y129134D02*
X80315D01*
X107874Y105315D02*
X107874Y105315D01*
X110827Y93504D02*
X112992Y91339D01*
X107874Y93504D02*
X110827D01*
X107874Y88583D02*
X109055Y87402D01*
X107874Y88583D02*
Y91536D01*
X96260Y81299D02*
X97441Y82480D01*
Y88976D01*
X89370Y76968D02*
Y79528D01*
X83138Y92587D02*
X83138D01*
D23*
X87717Y87717D02*
X88976Y88976D01*
X87717Y83465D02*
Y87717D01*
X81496Y115354D02*
X82284Y114567D01*
Y112992D02*
Y114567D01*
Y112992D02*
X87402Y107874D01*
X76968Y115354D02*
X81496D01*
X87402Y107874D02*
X89724D01*
X48031Y107480D02*
X52559D01*
X45276Y110236D02*
X48031Y107480D01*
X45276Y110236D02*
Y112205D01*
X111024Y120669D02*
X118701Y128347D01*
X111024Y114842D02*
Y120669D01*
X107853Y111672D02*
X111024Y114842D01*
X107853Y108958D02*
Y111672D01*
X100197Y132677D02*
Y150787D01*
X106850Y115354D02*
Y127008D01*
X105315Y113819D02*
X106850Y115354D01*
X113504Y94331D02*
X117126D01*
X112362Y95473D02*
X113504Y94331D01*
X117126D02*
X118307Y95512D01*
X119843Y99685D02*
X122008D01*
X118307Y98150D02*
X119843Y99685D01*
X118307Y95512D02*
Y98150D01*
X118701Y128347D02*
Y132520D01*
X118543Y132677D02*
X118701Y132520D01*
X107677Y132677D02*
X118543D01*
X105512Y128347D02*
X106850Y127008D01*
X113386Y104724D02*
Y108512D01*
X112992Y104331D02*
X113386Y104724D01*
Y108512D02*
X115346Y110472D01*
X115354D02*
X118701Y113819D01*
X115346Y110472D02*
X115354D01*
X118701Y113819D02*
Y117165D01*
X115630Y77008D02*
X120945D01*
X113976Y141378D02*
X117717D01*
X117913Y141575D01*
X107638Y141772D02*
Y146260D01*
Y141772D02*
X107677Y141732D01*
X108150Y84488D02*
X115630Y77008D01*
X82874Y95473D02*
X84724D01*
X60039Y101181D02*
X75984D01*
X81496Y96850D02*
X82874Y95473D01*
X60039Y98425D02*
Y101181D01*
X75984D02*
X76968Y100197D01*
Y96850D02*
Y100197D01*
Y96850D02*
X81496D01*
X114750Y98805D02*
X118504Y102559D01*
Y104567D01*
X107677Y150787D02*
X108819D01*
X100197D02*
Y159843D01*
X107874Y76968D02*
Y78819D01*
X103405Y83287D02*
X107874Y78819D01*
X102441Y84252D02*
X103405Y83287D01*
X103405D01*
X112598Y70276D02*
X113386Y69488D01*
X112598Y70276D02*
Y75590D01*
X111221Y76968D02*
X112598Y75590D01*
X113386Y69488D02*
X116929D01*
X82992Y78740D02*
X87717Y83465D01*
X76968Y78740D02*
X82992D01*
X107677Y159843D02*
X112992D01*
X96260Y125000D02*
X101575D01*
X125984Y76968D02*
X131299D01*
X98425Y64173D02*
Y69488D01*
X118701Y117165D02*
Y122480D01*
X107874Y64173D02*
Y69488D01*
X89370Y64173D02*
Y69488D01*
X47244Y116535D02*
X52559D01*
X47244Y129134D02*
X52559D01*
X47244Y138189D02*
X52559D01*
X76968Y115354D02*
Y122244D01*
X101575Y128347D02*
X105512D01*
X100197Y129724D02*
X101575Y128347D01*
X100197Y129724D02*
Y132677D01*
X47244Y98425D02*
X52559D01*
X117913Y85669D02*
Y90591D01*
X117520Y85276D02*
X117913Y85669D01*
X115354Y85276D02*
X117520D01*
X112992Y87402D02*
X114961Y85433D01*
X112992Y87402D02*
Y91339D01*
X107874Y76968D02*
X111221D01*
X116929Y69488D02*
X116929Y69488D01*
X125984D01*
X76968Y71850D02*
Y78740D01*
D24*
X19685Y118110D02*
D03*
Y78740D02*
D03*
X177165Y55118D02*
D03*
Y141732D02*
D03*
Y78740D02*
D03*
Y118110D02*
D03*
D25*
X40945Y161024D02*
D03*
X151772Y149724D02*
D03*
X40945Y61024D02*
D03*
Y57087D02*
D03*
X37402D02*
D03*
X33465Y61024D02*
D03*
Y53150D02*
D03*
X37402Y49213D02*
D03*
X41339Y45276D02*
D03*
X33465D02*
D03*
X37402Y41339D02*
D03*
X41339Y37402D02*
D03*
X33465D02*
D03*
X37402Y33465D02*
D03*
X43307D02*
D03*
Y41339D02*
D03*
Y135827D02*
D03*
Y127953D02*
D03*
X37402D02*
D03*
X33465Y131890D02*
D03*
X41339D02*
D03*
X37402Y135827D02*
D03*
X33465Y139764D02*
D03*
X41339D02*
D03*
X37402Y143701D02*
D03*
X33465Y147638D02*
D03*
Y155512D02*
D03*
X37402Y151575D02*
D03*
X68110Y92677D02*
D03*
X70866D02*
D03*
X133858Y87008D02*
D03*
Y84252D02*
D03*
X129528Y96850D02*
D03*
Y94095D02*
D03*
X129724Y105905D02*
D03*
Y103150D02*
D03*
X129921Y115748D02*
D03*
X127559Y128347D02*
D03*
X148425Y87008D02*
D03*
X145276Y72835D02*
D03*
Y82677D02*
D03*
X155118Y87008D02*
D03*
X158661Y82284D02*
D03*
Y72835D02*
D03*
X145276Y124016D02*
D03*
Y114567D02*
D03*
X148819Y109843D02*
D03*
X158661Y114173D02*
D03*
Y124016D02*
D03*
X55118Y78740D02*
D03*
Y75197D02*
D03*
Y82284D02*
D03*
X75590Y169685D02*
D03*
Y176772D02*
D03*
X100787Y114173D02*
D03*
X84252Y104488D02*
D03*
X86221Y113937D02*
D03*
X96063Y117323D02*
D03*
X45276Y112205D02*
D03*
X110433Y107362D02*
D03*
X113976Y141378D02*
D03*
X107638Y146260D02*
D03*
X152165Y46772D02*
D03*
X122008Y99685D02*
D03*
X81496Y91063D02*
D03*
X94370Y102677D02*
D03*
X87520Y121811D02*
D03*
X90669Y84449D02*
D03*
X76772Y146043D02*
D03*
X74803Y51555D02*
D03*
X53524D02*
D03*
Y66555D02*
D03*
Y146043D02*
D03*
X155512Y109843D02*
D03*
X75590Y173228D02*
D03*
X40945Y151575D02*
D03*
Y155512D02*
D03*
X94370Y93898D02*
D03*
X102717D02*
D03*
Y102677D02*
D03*
X112992Y159843D02*
D03*
X96260Y125000D02*
D03*
X124803Y128347D02*
D03*
X129921Y118504D02*
D03*
X131299Y76968D02*
D03*
X98425Y64173D02*
D03*
X118701Y122480D02*
D03*
X107874Y64173D02*
D03*
X89370D02*
D03*
X47244Y116535D02*
D03*
X47244Y129134D02*
D03*
Y138189D02*
D03*
X76968Y122244D02*
D03*
X47244Y98425D02*
D03*
X117913Y90591D02*
D03*
X109055Y87402D02*
D03*
X121063Y76968D02*
D03*
X96260Y81299D02*
D03*
X76968Y71850D02*
D03*
X83976Y100472D02*
D03*
D31*
X98425Y98425D02*
D03*
D32*
X107874Y105315D02*
D03*
Y103347D02*
D03*
Y101378D02*
D03*
Y99410D02*
D03*
Y97441D02*
D03*
Y95473D02*
D03*
Y93504D02*
D03*
Y91536D02*
D03*
X88976D02*
D03*
Y93504D02*
D03*
Y95473D02*
D03*
Y97441D02*
D03*
Y99410D02*
D03*
Y101378D02*
D03*
Y103347D02*
D03*
Y105315D02*
D03*
D33*
X105315Y88976D02*
D03*
X103347D02*
D03*
X101378D02*
D03*
X99410D02*
D03*
X97441D02*
D03*
X95473D02*
D03*
X93504D02*
D03*
X91536D02*
D03*
Y107874D02*
D03*
X93504D02*
D03*
X95473D02*
D03*
X97441D02*
D03*
X99410D02*
D03*
X101378D02*
D03*
X103347D02*
D03*
X105315D02*
D03*
D34*
X89370Y69488D02*
D03*
Y76968D02*
D03*
X98425Y76968D02*
D03*
Y69488D02*
D03*
X107874Y69488D02*
D03*
Y76968D02*
D03*
X116929Y76968D02*
D03*
Y69488D02*
D03*
X125984Y69488D02*
D03*
Y76968D02*
D03*
X101575Y125000D02*
D03*
Y117520D02*
D03*
D35*
X117913Y85669D02*
D03*
X130118D02*
D03*
D36*
X118307Y95512D02*
D03*
X125787D02*
D03*
X125984Y104567D02*
D03*
X118504D02*
D03*
X118701Y117165D02*
D03*
X126181D02*
D03*
X126181Y132520D02*
D03*
X118701D02*
D03*
X69488Y78740D02*
D03*
X76968D02*
D03*
X76968Y96850D02*
D03*
X69488D02*
D03*
X76968Y115354D02*
D03*
X69488D02*
D03*
D37*
X117913Y141575D02*
D03*
X125394D02*
D03*
X107677Y132677D02*
D03*
X100197D02*
D03*
X100197Y141732D02*
D03*
X107677D02*
D03*
X107677Y150787D02*
D03*
X100197D02*
D03*
X107677Y159843D02*
D03*
X100197D02*
D03*
X77756Y87795D02*
D03*
X70276D02*
D03*
X70276Y105905D02*
D03*
X77756D02*
D03*
X52559Y98425D02*
D03*
X60039D02*
D03*
X60039Y107480D02*
D03*
X52559D02*
D03*
X60039Y116535D02*
D03*
X52559D02*
D03*
X52559Y129134D02*
D03*
X60039D02*
D03*
X52559Y138189D02*
D03*
X60039D02*
D03*
D38*
X140157Y113189D02*
Y145905D01*
X136811Y109843D02*
X140157Y113189D01*
X135236Y150827D02*
X140157Y145905D01*
X118504Y105588D02*
X122759Y109843D01*
X118504Y104567D02*
Y105588D01*
X122759Y109843D02*
X136811D01*
X136811Y109843D01*
X108858Y150827D02*
X135236D01*
X108819Y150787D02*
X108858Y150827D01*
D39*
X60039Y101181D02*
Y116339D01*
M02*
