G04*
G04 #@! TF.GenerationSoftware,Altium Limited,Altium Designer,18.0.12 (696)*
G04*
G04 Layer_Color=8388736*
%FSLAX25Y25*%
%MOIN*%
G70*
G01*
G75*
%ADD16C,0.01181*%
%ADD17C,0.00984*%
%ADD18R,0.09068X0.03162*%
%ADD19R,0.15958X0.22453*%
%ADD20R,0.04343X0.10642*%
%ADD21R,0.10839X0.15564*%
%ADD22C,0.16548*%
D16*
X11811Y15748D02*
Y19747D01*
X12811D01*
X13810Y18747D01*
Y15748D01*
Y18747D01*
X14810Y19747D01*
X15810Y18747D01*
Y15748D01*
X17809D02*
X19808D01*
X18809D01*
Y19747D01*
X17809D01*
X26806D02*
X23807D01*
X22807Y18747D01*
Y16748D01*
X23807Y15748D01*
X26806D01*
X28806Y19747D02*
Y15748D01*
Y17747D01*
X29805Y18747D01*
X30805Y19747D01*
X31805D01*
X35803Y15748D02*
X37803D01*
X38802Y16748D01*
Y18747D01*
X37803Y19747D01*
X35803D01*
X34804Y18747D01*
Y16748D01*
X35803Y15748D01*
X44800Y21746D02*
X40802D01*
Y18747D01*
X42801D01*
X40802D01*
Y15748D01*
X47799Y19747D02*
X49799D01*
X50798Y18747D01*
Y15748D01*
X47799D01*
X46800Y16748D01*
X47799Y17747D01*
X50798D01*
X52798Y21746D02*
Y15748D01*
X55797D01*
X56796Y16748D01*
Y17747D01*
Y18747D01*
X55797Y19747D01*
X52798D01*
X58796D02*
Y15748D01*
Y17747D01*
X59795Y18747D01*
X60795Y19747D01*
X61795D01*
X64794Y15748D02*
X66793D01*
X65794D01*
Y19747D01*
X64794D01*
X73791D02*
X70792D01*
X69792Y18747D01*
Y16748D01*
X70792Y15748D01*
X73791D01*
X76790Y19747D02*
X78789D01*
X79789Y18747D01*
Y15748D01*
X76790D01*
X75790Y16748D01*
X76790Y17747D01*
X79789D01*
X82788Y20746D02*
Y19747D01*
X81788D01*
X83788D01*
X82788D01*
Y16748D01*
X83788Y15748D01*
X89786D02*
X87786D01*
X86787Y16748D01*
Y18747D01*
X87786Y19747D01*
X89786D01*
X90785Y18747D01*
Y17747D01*
X86787D01*
D17*
X14960Y11810D02*
X14173Y12597D01*
X12598D01*
X11811Y11810D01*
Y11023D01*
X12598Y10236D01*
X14173D01*
X14960Y9448D01*
Y8661D01*
X14173Y7874D01*
X12598D01*
X11811Y8661D01*
X19682Y11023D02*
X17321D01*
X16534Y10236D01*
Y8661D01*
X17321Y7874D01*
X19682D01*
X21257Y12597D02*
Y7874D01*
Y10236D01*
X22044Y11023D01*
X23618D01*
X24405Y10236D01*
Y7874D01*
X28341D02*
X26767D01*
X25980Y8661D01*
Y10236D01*
X26767Y11023D01*
X28341D01*
X29128Y10236D01*
Y9448D01*
X25980D01*
X30702Y7874D02*
Y11023D01*
X31490D01*
X32277Y10236D01*
Y7874D01*
Y10236D01*
X33064Y11023D01*
X33851Y10236D01*
Y7874D01*
X36213Y11023D02*
X37787D01*
X38574Y10236D01*
Y7874D01*
X36213D01*
X35425Y8661D01*
X36213Y9448D01*
X38574D01*
X40935Y11810D02*
Y11023D01*
X40148D01*
X41723D01*
X40935D01*
Y8661D01*
X41723Y7874D01*
X44084D02*
X45658D01*
X44871D01*
Y11023D01*
X44084D01*
X51168D02*
X48807D01*
X48020Y10236D01*
Y8661D01*
X48807Y7874D01*
X51168D01*
X60614D02*
X59827Y8661D01*
X59040Y7874D01*
X58253D01*
X57465Y8661D01*
Y9448D01*
X58253Y10236D01*
X57465Y11023D01*
Y11810D01*
X58253Y12597D01*
X59040D01*
X59827Y11810D01*
Y11023D01*
X59040Y10236D01*
X59827Y9448D01*
Y8661D01*
X60614Y10236D02*
X59827Y9448D01*
X58253Y10236D02*
X59040D01*
X66911Y7874D02*
Y12597D01*
X69273D01*
X70060Y11810D01*
Y10236D01*
X69273Y9448D01*
X66911D01*
X74783Y11810D02*
X73996Y12597D01*
X72421D01*
X71634Y11810D01*
Y8661D01*
X72421Y7874D01*
X73996D01*
X74783Y8661D01*
X76357Y12597D02*
Y7874D01*
X78719D01*
X79506Y8661D01*
Y9448D01*
X78719Y10236D01*
X76357D01*
X78719D01*
X79506Y11023D01*
Y11810D01*
X78719Y12597D01*
X76357D01*
X85803D02*
Y7874D01*
X88164D01*
X88951Y8661D01*
Y11810D01*
X88164Y12597D01*
X85803D01*
X92887Y7874D02*
X91313D01*
X90526Y8661D01*
Y10236D01*
X91313Y11023D01*
X92887D01*
X93674Y10236D01*
Y9448D01*
X90526D01*
X95249Y7874D02*
X97610D01*
X98397Y8661D01*
X97610Y9448D01*
X96036D01*
X95249Y10236D01*
X96036Y11023D01*
X98397D01*
X99971Y7874D02*
X101546D01*
X100759D01*
Y11023D01*
X99971D01*
X105482Y6300D02*
X106269D01*
X107056Y7087D01*
Y11023D01*
X104694D01*
X103907Y10236D01*
Y8661D01*
X104694Y7874D01*
X107056D01*
X108630D02*
Y11023D01*
X110992D01*
X111779Y10236D01*
Y7874D01*
X121224Y11810D02*
X120437Y12597D01*
X118863D01*
X118076Y11810D01*
Y8661D01*
X118863Y7874D01*
X120437D01*
X121224Y8661D01*
X123586Y7874D02*
X125160D01*
X125947Y8661D01*
Y10236D01*
X125160Y11023D01*
X123586D01*
X122799Y10236D01*
Y8661D01*
X123586Y7874D01*
X127522Y11023D02*
Y8661D01*
X128309Y7874D01*
X130670D01*
Y11023D01*
X132245D02*
Y7874D01*
Y9448D01*
X133032Y10236D01*
X133819Y11023D01*
X134606D01*
X136967Y7874D02*
X139329D01*
X140116Y8661D01*
X139329Y9448D01*
X137754D01*
X136967Y10236D01*
X137754Y11023D01*
X140116D01*
X144052Y7874D02*
X142477D01*
X141690Y8661D01*
Y10236D01*
X142477Y11023D01*
X144052D01*
X144839Y10236D01*
Y9448D01*
X141690D01*
X146413Y7874D02*
X148775D01*
X149562Y8661D01*
X148775Y9448D01*
X147200D01*
X146413Y10236D01*
X147200Y11023D01*
X149562D01*
D18*
X46457Y66555D02*
D03*
Y61555D02*
D03*
Y56555D02*
D03*
Y51555D02*
D03*
X69291Y66555D02*
D03*
Y61555D02*
D03*
Y56555D02*
D03*
Y51555D02*
D03*
Y146043D02*
D03*
Y151043D02*
D03*
Y156043D02*
D03*
Y161043D02*
D03*
X46457Y146043D02*
D03*
Y151043D02*
D03*
Y156043D02*
D03*
Y161043D02*
D03*
D19*
X127067Y51181D02*
D03*
X87894D02*
D03*
X87894Y145669D02*
D03*
X127067D02*
D03*
D20*
X71457Y78740D02*
D03*
X59252D02*
D03*
Y173228D02*
D03*
X71457D02*
D03*
D21*
X151969Y56299D02*
D03*
Y77559D02*
D03*
Y140551D02*
D03*
Y119291D02*
D03*
D22*
X19685Y118110D02*
D03*
Y78740D02*
D03*
X177165Y55118D02*
D03*
Y141732D02*
D03*
Y78740D02*
D03*
Y118110D02*
D03*
M02*
