G04*
G04 #@! TF.GenerationSoftware,Altium Limited,Altium Designer,18.0.12 (696)*
G04*
G04 Layer_Physical_Order=2*
G04 Layer_Color=32768*
%FSLAX25Y25*%
%MOIN*%
G70*
G01*
G75*
%ADD26C,0.04000*%
%ADD27C,0.09906*%
G04:AMPARAMS|DCode=28|XSize=138.425mil|YSize=138.425mil|CornerRadius=0mil|HoleSize=0mil|Usage=FLASHONLY|Rotation=0.000|XOffset=0mil|YOffset=0mil|HoleType=Round|Shape=Relief|Width=39.37mil|Gap=19.68mil|Entries=4|*
%AMTHD28*
7,0,0,0.13843,0.09906,0.03937,45*
%
%ADD28THD28*%
%ADD29C,0.05181*%
D26*
X0Y0D02*
Y196850D01*
X196850D01*
Y0D02*
Y196850D01*
X0Y0D02*
X196850D01*
D27*
X19685Y118110D02*
D03*
X177165Y55118D02*
D03*
Y141732D02*
D03*
D28*
X19685Y78740D02*
D03*
X177165D02*
D03*
Y118110D02*
D03*
D29*
X40945Y161024D02*
D03*
X151772Y149724D02*
D03*
X100787Y114173D02*
D03*
X84252Y104488D02*
D03*
X86221Y113937D02*
D03*
X45276Y112205D02*
D03*
X110433Y107362D02*
D03*
X113976Y141378D02*
D03*
X107638Y146260D02*
D03*
X152165Y46772D02*
D03*
X122008Y99685D02*
D03*
X81496Y91063D02*
D03*
X87520Y121811D02*
D03*
X90669Y84449D02*
D03*
X76772Y146043D02*
D03*
X74803Y51555D02*
D03*
X53524D02*
D03*
Y66555D02*
D03*
Y146043D02*
D03*
X118701Y122480D02*
D03*
X107874Y64173D02*
D03*
X89370D02*
D03*
X47244Y116535D02*
D03*
X47244Y129134D02*
D03*
Y138189D02*
D03*
X76968Y122244D02*
D03*
X47244Y98425D02*
D03*
X117913Y90591D02*
D03*
X121063Y76968D02*
D03*
X96260Y81299D02*
D03*
X76968Y71850D02*
D03*
X83976Y100472D02*
D03*
M02*
