G04*
G04 #@! TF.GenerationSoftware,Altium Limited,Altium Designer,18.0.12 (696)*
G04*
G04 Layer_Color=128*
%FSLAX25Y25*%
%MOIN*%
G70*
G01*
G75*
%ADD31R,0.12992X0.12992*%
%ADD32R,0.02362X0.00906*%
%ADD33R,0.00906X0.02362*%
%ADD34R,0.05118X0.02756*%
%ADD35R,0.03543X0.06299*%
%ADD36R,0.03543X0.05118*%
%ADD37R,0.02756X0.05118*%
D31*
X98425Y98425D02*
D03*
D32*
X107874Y105315D02*
D03*
Y103347D02*
D03*
Y101378D02*
D03*
Y99410D02*
D03*
Y97441D02*
D03*
Y95473D02*
D03*
Y93504D02*
D03*
Y91536D02*
D03*
X88976D02*
D03*
Y93504D02*
D03*
Y95473D02*
D03*
Y97441D02*
D03*
Y99410D02*
D03*
Y101378D02*
D03*
Y103347D02*
D03*
Y105315D02*
D03*
D33*
X105315Y88976D02*
D03*
X103347D02*
D03*
X101378D02*
D03*
X99410D02*
D03*
X97441D02*
D03*
X95473D02*
D03*
X93504D02*
D03*
X91536D02*
D03*
Y107874D02*
D03*
X93504D02*
D03*
X95473D02*
D03*
X97441D02*
D03*
X99410D02*
D03*
X101378D02*
D03*
X103347D02*
D03*
X105315D02*
D03*
D34*
X89370Y69488D02*
D03*
Y76968D02*
D03*
X98425Y76968D02*
D03*
Y69488D02*
D03*
X107874Y69488D02*
D03*
Y76968D02*
D03*
X116929Y76968D02*
D03*
Y69488D02*
D03*
X125984Y69488D02*
D03*
Y76968D02*
D03*
X101575Y125000D02*
D03*
Y117520D02*
D03*
D35*
X117913Y85669D02*
D03*
X130118D02*
D03*
D36*
X118307Y95512D02*
D03*
X125787D02*
D03*
X125984Y104567D02*
D03*
X118504D02*
D03*
X118701Y117165D02*
D03*
X126181D02*
D03*
X126181Y132520D02*
D03*
X118701D02*
D03*
X69488Y78740D02*
D03*
X76968D02*
D03*
X76968Y96850D02*
D03*
X69488D02*
D03*
X76968Y115354D02*
D03*
X69488D02*
D03*
D37*
X117913Y141575D02*
D03*
X125394D02*
D03*
X107677Y132677D02*
D03*
X100197D02*
D03*
X100197Y141732D02*
D03*
X107677D02*
D03*
X107677Y150787D02*
D03*
X100197D02*
D03*
X107677Y159843D02*
D03*
X100197D02*
D03*
X77756Y87795D02*
D03*
X70276D02*
D03*
X70276Y105905D02*
D03*
X77756D02*
D03*
X52559Y98425D02*
D03*
X60039D02*
D03*
X60039Y107480D02*
D03*
X52559D02*
D03*
X60039Y116535D02*
D03*
X52559D02*
D03*
X52559Y129134D02*
D03*
X60039D02*
D03*
X52559Y138189D02*
D03*
X60039D02*
D03*
M02*
